<?xml version="1.0" encoding="UTF-8"?>
<svg width="427px" height="332px" viewBox="0 0 427 332" version="1.1" xmlns="http://www.w3.org/2000/svg" xmlns:xlink="http://www.w3.org/1999/xlink">
    <!-- Generator: Sketch 53.2 (72643) - https://sketchapp.com -->
    <title>figure2</title>
    <desc>Created with Sketch.</desc>
    <defs>
        <path d="M46.3987139,0.739474027 C46.5905422,0.637915363 46.7977681,0.589674997 47.0011446,0.589674997 C47.4598645,0.589674997 47.9031867,0.834050534 48.1341506,1.26250115 C48.4677651,1.88073952 48.2310271,2.65004641 47.6061416,2.98011207 L4.68150904,25.6226164 C2.80556928,26.6121786 2.09535542,28.9194645 3.0961988,30.7748144 C3.43751205,31.4089213 3.95268976,31.9338526 4.58270783,32.2899427 L58.3562259,62.7035891 C61.4325361,64.4434159 62.5001024,68.3210527 60.7422108,71.3640042 C60.1885392,72.3224641 59.3917139,73.1209691 58.4319307,73.681446 L3.27840361,105.867926 C2.66763253,106.224016 1.88107229,106.023438 1.52115361,105.419798 C1.16123494,104.815524 1.36396988,104.037331 1.9740994,103.681241 L57.1276265,71.4941262 C57.7043946,71.1577132 58.1817199,70.679118 58.5134096,70.1046768 C59.5694277,68.278525 58.928503,65.9521969 57.0820753,64.9080468 L3.30855723,34.4937657 C2.25895482,33.9002823 1.40053916,33.0256083 0.83146988,31.9700329 C-0.835319277,28.8769368 0.347728916,25.0323066 3.47472289,23.3826131 L46.3987139,0.739474027 Z" id="path-1"></path>
        <linearGradient x1="77.2572501%" y1="41.899892%" x2="68.6451568%" y2="49.1732908%" id="linearGradient-3">
            <stop stop-color="#EE2649" offset="0%"></stop>
            <stop stop-color="#F36E44" offset="100%"></stop>
        </linearGradient>
        <path d="M1.40225792,0.402082702 C1.40352521,0.402082702 1.4047925,0.402082702 1.40542615,0.402082702 C1.6183311,0.402082702 1.83313699,0.455401001 2.03146809,0.567683065 L33.5699152,18.4644406 C34.1769478,18.8094413 34.3873182,19.5759703 34.038813,20.1775262 C33.6909415,20.7784547 32.9166265,20.9867097 32.3095939,20.641709 L0.770513164,2.74495149 C0.163480589,2.400578 -0.0468897813,1.63404904 0.30161535,1.03249318 C0.535430611,0.628528654 0.962507809,0.402082702 1.40225792,0.402082702 Z" id="path-4"></path>
        <linearGradient x1="73.9986979%" y1="39.4045139%" x2="73.9986979%" y2="153.182292%" id="linearGradient-6">
            <stop stop-color="#19FFF3" offset="0%"></stop>
            <stop stop-color="#FFFFFF" offset="100%"></stop>
        </linearGradient>
        <path d="M1.40225792,0.402082702 C0.962507809,0.402082702 0.535430611,0.628528654 0.30161535,1.03249318 L0.30161535,1.03249318 C-0.0468897813,1.63404904 0.163480589,2.400578 0.770513164,2.74495149 L0.770513164,2.74495149 L32.3095939,20.641709 C32.9166265,20.9867097 33.6909415,20.7784547 34.038813,20.1775262 L34.038813,20.1775262 C34.3873182,19.5759703 34.1769478,18.8094413 33.5699152,18.4644406 L33.5699152,18.4644406 L2.03146809,0.567683065 C1.83377064,0.455401001 1.6183311,0.402082702 1.40605979,0.402082702 L1.40605979,0.402082702 C1.4047925,0.402082702 1.40352521,0.402082702 1.40225792,0.402082702" id="path-7"></path>
        <linearGradient x1="96.280382%" y1="65.7272541%" x2="3.72026885%" y2="34.271514%" id="linearGradient-9">
            <stop stop-color="#EB2245" offset="0%"></stop>
            <stop stop-color="#F36E44" offset="100%"></stop>
        </linearGradient>
        <path d="M0.476542373,1.53010722 C0.502060037,2.0072932 0.539060649,2.31720474 0.588820094,2.45984186 L0.588820094,2.45984186 L3.93609965,12.1708359 C4.18744864,12.8976368 4.8247523,13.4156689 5.57816132,13.5051412 L5.57816132,13.5051412 L23.9808626,15.6848957 C25.0296386,15.8087306 26.0892595,15.5720827 26.9893951,15.0125562 L26.9893951,15.0125562 L36.6912109,9.34402763 C37.2232542,9.01336887 37.5543459,8.45967753 37.6245195,7.8599533 L37.6245195,7.8599533 L37.6385542,6.34216474 C37.6098468,6.67995536 37.5007588,6.39143938 37.3189455,6.10357175 L37.3189455,6.10357175 C37.1620118,5.85330845 36.9495773,5.60304515 36.6912109,5.76383608 L36.6912109,5.76383608 L26.9893951,11.4323646 C26.0892595,11.9918911 25.0296386,12.2291874 23.9808626,12.1047041 L23.9808626,12.1047041 L5.57816132,9.92559804 C4.8247523,9.83612567 4.18744864,9.31744526 3.93609965,8.58999598 L3.93609965,8.58999598 L0.588820094,0.459032165 C0.584992444,0.449306907 0.582440678,0.444768454 0.578613028,0.444768454 L0.578613028,0.444768454 C0.549267715,0.444768454 0.514818869,0.807196392 0.476542373,1.53010722 L0.476542373,1.53010722 Z" id="path-10"></path>
        <path d="M13.6194152,0.407485862 C12.8034878,0.41255567 11.9990435,0.627388807 11.2871007,1.03550839 L11.2871007,1.03550839 L1.46726567,6.66806568 C0.851652032,7.02168483 0.489301205,7.66238189 0.476542373,8.33666642 L0.476542373,8.33666642 L0.476542373,8.4114461 C0.480370022,8.61550589 0.516732693,8.82273432 0.588182152,9.0242592 L0.588182152,9.0242592 L3.93609965,18.5155745 C4.18744864,19.2266152 4.8247523,19.733596 5.57816132,19.8210502 L5.57816132,19.8210502 L23.9802246,21.9510035 C24.1492792,21.970649 24.3183337,21.9814224 24.4873882,21.9826898 L24.4873882,21.9826898 L24.5677688,21.9826898 C25.4194209,21.9750851 26.2570382,21.7387053 26.9893951,21.2938296 L26.9893951,21.2938296 L36.690573,15.7537963 C37.2819449,15.3944736 37.6270713,14.7658174 37.6385542,14.1067423 L37.6385542,14.1067423 L37.6385542,14.0395673 C37.6347266,13.8450134 37.6021915,13.6485583 37.5383974,13.4565393 L37.5383974,13.4565393 L34.3595344,3.88220589 C34.1164787,3.15342091 33.4702438,2.63059691 32.7021621,2.54314271 L32.7021621,2.54314271 L14.1839935,0.437904713 C14.0155769,0.418892931 13.8471603,0.408753314 13.6793817,0.407485862 L13.6793817,0.407485862 L13.6194152,0.407485862 Z" id="path-12"></path>
        <ellipse id="path-14" cx="10.2650602" cy="20.4742268" rx="8.7253012" ry="2.04742268"></ellipse>
        <filter x="-85.0%" y="-366.3%" width="270.0%" height="832.6%" filterUnits="objectBoundingBox" id="filter-15">
            <feOffset dx="0" dy="0" in="SourceAlpha" result="shadowOffsetOuter1"></feOffset>
            <feGaussianBlur stdDeviation="5" in="shadowOffsetOuter1" result="shadowBlurOuter1"></feGaussianBlur>
            <feColorMatrix values="0 0 0 0 0.933333333   0 0 0 0 0.149019608   0 0 0 0 0.28627451  0 0 0 0.6 0" type="matrix" in="shadowBlurOuter1"></feColorMatrix>
        </filter>
        <linearGradient x1="12.3773851%" y1="3.95912898%" x2="84.0782348%" y2="91.76756%" id="linearGradient-16">
            <stop stop-color="#EE2649" offset="0%"></stop>
            <stop stop-color="#EE3449" offset="21.22%"></stop>
            <stop stop-color="#F05048" offset="55.81%"></stop>
            <stop stop-color="#F36E45" offset="93.04%"></stop>
        </linearGradient>
        <path d="M0.0960888922,1.99347711 C0.131724508,2.64145126 0.183905231,3.06235218 0.252631061,3.25617988 L0.252631061,3.25617988 L4.94571437,16.4571634 C5.29697972,17.4457474 6.19041552,18.1501762 7.24612063,18.2712401 L7.24612063,18.2712401 L33.0386701,21.234483 C34.5086393,21.4032198 35.9932445,21.0814281 37.2551271,20.3199174 L37.2551271,20.3199174 L50.8520235,12.6144823 C51.5984624,12.165354 52.0636344,11.4126251 52.160996,10.5984233 L52.160996,10.5984233 L52.1807229,8.53343693 C52.1412692,8.99260158 51.9872724,8.60118253 51.7333686,8.20976349 L51.7333686,8.20976349 C51.5125551,7.86978093 51.2160159,7.52917109 50.8520235,7.74746248 L50.8520235,7.74746248 L37.2551271,15.4535249 C35.9932445,16.2144084 34.5086393,16.5362 33.0386701,16.3674632 L33.0386701,16.3674632 L7.24612063,13.4042204 C6.19041552,13.2831565 5.29697972,12.5787276 4.94571437,11.5901436 L4.94571437,11.5901436 L0.252631061,0.53631936 C0.248176609,0.523773878 0.243722157,0.517501137 0.238631355,0.517501137 L0.238631355,0.517501137 C0.198541287,0.517501137 0.150815016,1.00928404 0.0960888922,1.99347711 L0.0960888922,1.99347711 Z" id="path-17"></path>
        <path d="M18.6201597,0.581687408 C17.4629493,0.584264096 16.3210748,0.891534189 15.311471,1.47901915 L15.311471,1.47901915 L1.49204093,9.52279618 C0.330357672,10.1991769 -0.190418929,11.6124905 0.253678908,12.8885954 L0.253678908,12.8885954 L4.9662279,26.4445531 C5.31895021,27.4597684 6.21545275,28.1831736 7.27553665,28.308143 L7.27553665,28.308143 L33.1757059,31.3505679 C34.6517721,31.5238501 36.1425351,31.1933899 37.4096516,30.4126533 L37.4096516,30.4126533 L51.0629444,22.498999 C52.1677576,21.8174649 52.6623356,20.4582618 52.2565772,19.2182305 L52.2565772,19.2182305 L47.7823713,5.54438928 C47.4405118,4.50405134 46.5305905,3.75745587 45.4500589,3.63248648 L45.4500589,3.63248648 L19.3882253,0.625491111 C19.1409363,0.597147538 18.8930083,0.58233158 18.6463583,0.581687408 L18.6463583,0.581687408 L18.6201597,0.581687408 Z" id="path-19"></path>
        <ellipse id="path-21" cx="17.1084337" cy="34.1237113" rx="14.5421687" ry="3.41237113"></ellipse>
        <filter x="-51.6%" y="-219.8%" width="203.1%" height="539.6%" filterUnits="objectBoundingBox" id="filter-22">
            <feOffset dx="0" dy="0" in="SourceAlpha" result="shadowOffsetOuter1"></feOffset>
            <feGaussianBlur stdDeviation="5" in="shadowOffsetOuter1" result="shadowBlurOuter1"></feGaussianBlur>
            <feColorMatrix values="0 0 0 0 0.933333333   0 0 0 0 0.149019608   0 0 0 0 0.28627451  0 0 0 0.6 0" type="matrix" in="shadowBlurOuter1"></feColorMatrix>
        </filter>
        <linearGradient x1="12.3773851%" y1="3.95912898%" x2="84.0782348%" y2="91.76756%" id="linearGradient-23">
            <stop stop-color="#EE2649" offset="0%"></stop>
            <stop stop-color="#EE3449" offset="21.22%"></stop>
            <stop stop-color="#F05048" offset="55.81%"></stop>
            <stop stop-color="#F36E45" offset="93.04%"></stop>
        </linearGradient>
        <path d="M7.62680179,1.31407031 C7.85528216,0.883489017 8.29447221,0.637260309 8.74889429,0.637260309 C8.95008395,0.637898207 9.15381228,0.685740573 9.34357792,0.787166388 L34.3488508,14.1575128 C37.4434905,15.810945 38.6176257,19.6746944 36.9712977,22.7844482 C36.4077128,23.8491003 35.5553541,24.7325893 34.512595,25.329662 L5.06782161,42.2090865 C3.24061329,43.2565153 2.60467625,45.5944123 3.64616595,47.4302833 C3.97555849,48.0107707 4.45028993,48.4942975 5.0227602,48.8330215 L38.1574916,68.4311681 C38.7610606,68.789029 38.962885,69.5704543 38.607471,70.1783713 C38.2514225,70.7850125 37.4733199,70.9878641 36.8691162,70.6306411 L3.7356541,51.0318566 C2.78111387,50.4673167 1.98968325,49.6610134 1.44069569,48.6945976 C-0.29575515,45.6345999 0.76540925,41.7383176 3.80991022,39.9930281 L33.2546836,23.1136037 C33.880466,22.754467 34.3920082,22.2250114 34.730286,21.5864753 C35.717829,19.7199852 35.0133478,17.402501 33.1569448,16.4092935 L8.15167198,3.04022286 C7.5322363,2.70915369 7.29740925,1.93665896 7.62680179,1.31407031 Z" id="path-24"></path>
        <linearGradient x1="24.0173585%" y1="42.9389817%" x2="28.4803918%" y2="47.846468%" id="linearGradient-26">
            <stop stop-color="#EE2649" offset="0%"></stop>
            <stop stop-color="#F36E44" offset="100%"></stop>
        </linearGradient>
        <path d="M14.956573,0.772617698 C15.1555377,0.661099513 15.3728782,0.608112973 15.5876841,0.608112973 C16.0255332,0.608112973 16.4519768,0.829917096 16.6870593,1.22608391 C17.0361981,1.81509708 16.8277287,2.56861498 16.2206961,2.90809851 L1.89966979,10.9257015 C1.29327086,11.265185 0.518322178,11.0630968 0.1691834,10.4728514 C-0.179955377,9.88260596 0.0278804105,9.12970418 0.634912985,8.78960452 L14.956573,0.772617698 Z" id="path-27"></path>
        <linearGradient x1="25.4166667%" y1="40.8874444%" x2="25.4166667%" y2="154.665222%" id="linearGradient-29">
            <stop stop-color="#19FFF3" offset="0%"></stop>
            <stop stop-color="#FFFFFF" offset="100%"></stop>
        </linearGradient>
        <path d="M14.956573,0.772617698 L0.634912985,8.78960452 C0.0278804105,9.12970418 -0.179955377,9.88260596 0.1691834,10.4728514 L0.1691834,10.4728514 C0.518322178,11.0630968 1.29327086,11.265185 1.89966979,10.9257015 L1.89966979,10.9257015 L16.2206961,2.90809851 C16.8277287,2.56861498 17.0361981,1.81509708 16.6870593,1.22608391 L16.6870593,1.22608391 C16.4519768,0.829917096 16.0255332,0.608112973 15.5876841,0.608112973 L15.5876841,0.608112973 C15.3728782,0.608112973 15.1555377,0.661099513 14.956573,0.772617698" id="path-30"></path>
        <linearGradient x1="7.5191747%" y1="64.7886755%" x2="92.4798967%" y2="35.210702%" id="linearGradient-32">
            <stop stop-color="#EE2649" offset="0%"></stop>
            <stop stop-color="#F36E44" offset="100%"></stop>
        </linearGradient>
        <path d="M23.8358301,0.166353093 L21.681428,5.38216237 C21.5200685,5.84859085 21.1103665,6.18129704 20.6256576,6.23824098 L20.6256576,6.23824098 L8.78653139,7.63624678 C8.11209892,7.71622423 7.43010273,7.56458698 6.85084718,7.20500838 L6.85084718,7.20500838 L0.609510463,3.56955348 C0.443108434,3.46654253 0.306331008,3.62713724 0.204850983,3.78773196 L0.204850983,3.78773196 C0.0882435003,3.972 0.0182790108,4.15690786 0,3.94000902 L0,3.94000902 L0.00882435003,4.91381443 C0.0535764109,5.29834601 0.267251744,5.65344588 0.609510463,5.86586598 L0.609510463,5.86586598 L6.85084718,9.5019607 C7.43010273,9.86089948 8.11209892,10.0125367 8.78653139,9.9331991 L8.78653139,9.9331991 L20.6256576,8.53455348 C21.1103665,8.47760954 21.5200685,8.14490335 21.681428,7.67847487 L21.681428,7.67847487 L23.8358301,1.44983119 C23.8673456,1.35833698 23.8912974,1.15935309 23.9076855,0.85351933 L23.9076855,0.85351933 C23.8824731,0.389650129 23.8610425,0.157395619 23.8421332,0.157395619 L23.8421332,0.157395619 C23.8396119,0.157395619 23.8383513,0.160594716 23.8358301,0.166353093 L23.8358301,0.166353093 Z" id="path-33"></path>
        <path d="M15.3909271,0.263568579 C15.2900774,0.26546022 15.1892276,0.271765688 15.0890082,0.283115531 L15.0890082,0.283115531 L3.17550539,1.64509671 C2.68134179,1.70184592 2.26533672,2.03918848 2.10964997,2.51083752 L2.10964997,2.51083752 L0.0642916931,8.70280749 C-0.121649968,9.26399417 0.104631579,9.88003844 0.609510463,10.1883758 L0.609510463,10.1883758 L6.85084718,13.7717735 C7.43010273,14.1248798 8.11209892,14.2749499 8.78653139,14.1967621 L8.78653139,14.1967621 L20.6256576,12.8190173 C21.1103665,12.7628986 21.5200685,12.4343837 21.6820583,11.974715 L21.6820583,11.974715 L23.8358301,5.83634155 C24.0381598,5.25876065 23.8005327,4.6187556 23.269811,4.31230984 L23.269811,4.31230984 L16.9522067,0.669640744 C16.5015346,0.409224899 15.9922435,0.270504594 15.4753887,0.263568579 L15.4753887,0.263568579 L15.3909271,0.263568579 Z" id="path-35"></path>
        <ellipse id="path-37" cx="6.84337349" cy="13.6494845" rx="5.81686747" ry="1.36494845"></ellipse>
        <filter x="-125.1%" y="-549.5%" width="350.3%" height="1198.9%" filterUnits="objectBoundingBox" id="filter-38">
            <feOffset dx="0" dy="0" in="SourceAlpha" result="shadowOffsetOuter1"></feOffset>
            <feGaussianBlur stdDeviation="5" in="shadowOffsetOuter1" result="shadowBlurOuter1"></feGaussianBlur>
            <feColorMatrix values="0 0 0 0 0.933333333   0 0 0 0 0.149019608   0 0 0 0 0.28627451  0 0 0 0.6 0" type="matrix" in="shadowBlurOuter1"></feColorMatrix>
        </filter>
        <linearGradient x1="12.3773851%" y1="3.95912898%" x2="84.0782348%" y2="91.76756%" id="linearGradient-39">
            <stop stop-color="#EE2649" offset="0%"></stop>
            <stop stop-color="#EE3449" offset="21.22%"></stop>
            <stop stop-color="#F05048" offset="55.81%"></stop>
            <stop stop-color="#F36E45" offset="93.04%"></stop>
        </linearGradient>
        <path d="M34.0514859,0.372022636 L30.9732352,7.58484794 C30.7432218,8.22989736 30.1577332,8.689566 29.4651584,8.76838436 L29.4651584,8.76838436 L12.5525212,10.7022715 C11.5887461,10.8119867 10.614199,10.6020146 9.78665774,10.1057742 L9.78665774,10.1057742 L0.871262829,5.0777937 C0.632378402,4.93465957 0.437849174,5.1572426 0.292744311,5.37919509 L0.292744311,5.37919509 C0.126095493,5.63456656 0.0253458278,5.88993803 0,5.59042828 L0,5.59042828 L0.0126729139,6.93727633 C0.0773047747,7.46945787 0.382088353,7.96002331 0.871262829,8.25322759 L0.871262829,8.25322759 L9.78665774,13.2812081 C10.614199,13.778079 11.5887461,13.9880511 12.5525212,13.8777054 L12.5525212,13.8777054 L29.4651584,11.9444488 C30.1577332,11.8649999 30.7432218,11.4053312 30.9732352,10.7602818 L30.9732352,10.7602818 L34.0514859,2.14638144 C34.0964748,2.02090262 34.1306917,1.7459842 34.1535029,1.32288727 L34.1535029,1.32288727 C34.1180187,0.680990587 34.0863365,0.359411699 34.0597233,0.359411699 L34.0597233,0.359411699 C34.0571888,0.359411699 34.0540205,0.364456074 34.0514859,0.372022636 L34.0514859,0.372022636 Z" id="path-40"></path>
        <path d="M22.0103168,0.375574098 C21.8595091,0.376853737 21.7074342,0.385811211 21.5559929,0.40308634 L21.5559929,0.40308634 L4.53690317,2.34173969 C3.83102187,2.42235696 3.2366622,2.90414111 3.01361892,3.57467204 L3.01361892,3.57467204 L0.0925122713,12.3907461 C-0.172985274,13.1898808 0.149540384,14.0664336 0.871262829,14.5059897 L0.871262829,14.5059897 L9.78665774,19.6079111 C10.4595895,20.0173956 11.2282017,20.2342945 12.0094868,20.2419723 L12.0094868,20.2419723 L12.0905935,20.2419723 C12.2445694,20.2406927 12.3985453,20.2310954 12.5525212,20.2131804 L12.5525212,20.2131804 L29.4657921,18.2508537 C30.1577332,18.1708763 30.7438554,17.7044478 30.9738688,17.0499124 L30.9738688,17.0499124 L34.0514859,8.3099768 C34.119286,8.11675129 34.1522356,7.92032668 34.1541365,7.72454188 L34.1541365,7.72454188 L34.1541365,7.6989491 C34.149701,7.07000644 33.8157697,6.46921585 33.2423204,6.14034858 L33.2423204,6.14034858 L24.2179384,0.953331186 C23.5671843,0.579676546 22.8327889,0.382612113 22.086988,0.375574098 L22.086988,0.375574098 L22.0103168,0.375574098 Z" id="path-42"></path>
        <ellipse id="path-44" cx="10.2650602" cy="20.4742268" rx="8.7253012" ry="2.04742268"></ellipse>
        <filter x="-85.0%" y="-366.3%" width="270.0%" height="832.6%" filterUnits="objectBoundingBox" id="filter-45">
            <feOffset dx="0" dy="0" in="SourceAlpha" result="shadowOffsetOuter1"></feOffset>
            <feGaussianBlur stdDeviation="5" in="shadowOffsetOuter1" result="shadowBlurOuter1"></feGaussianBlur>
            <feColorMatrix values="0 0 0 0 0.933333333   0 0 0 0 0.149019608   0 0 0 0 0.28627451  0 0 0 0.6 0" type="matrix" in="shadowBlurOuter1"></feColorMatrix>
        </filter>
        <path d="M46.3987139,0.739474027 C46.5911837,0.637915363 46.7971265,0.590309739 47.0011446,0.590309739 C47.4598645,0.590309739 47.9031867,0.834050534 48.1341506,1.26250115 C48.4684066,1.88137426 48.2316687,2.65004641 47.6061416,2.97947733 L4.6821506,25.6232511 C2.80621084,26.6128133 2.09599699,28.9194645 3.0961988,30.7754491 C3.43751205,31.4089213 3.95268976,31.9338526 4.58206627,32.2899427 L58.3562259,62.7035891 C61.4318946,64.4434159 62.5001024,68.3210527 60.7415693,71.3646389 C60.1885392,72.3224641 59.3923554,73.1209691 58.4312892,73.681446 L3.27840361,105.867926 C2.6682741,106.224016 1.88107229,106.023438 1.52115361,105.419163 C1.16123494,104.815524 1.36396988,104.037331 1.97474096,103.681241 L57.1276265,71.494761 C57.7043946,71.1583479 58.1817199,70.679118 58.5140512,70.104042 C59.5687861,68.278525 58.9278614,65.9515621 57.0827169,64.9080468 L3.3091988,34.4944005 C2.25895482,33.9002823 1.40053916,33.0256083 0.832111446,31.9700329 C-0.835960843,28.8763021 0.347728916,25.0316719 3.47472289,23.3826131 L46.3987139,0.739474027 Z" id="path-46"></path>
        <linearGradient x1="44.7572501%" y1="57.6224824%" x2="36.1451568%" y2="64.8958811%" id="linearGradient-48">
            <stop stop-color="#EE2649" offset="0%"></stop>
            <stop stop-color="#F36E44" offset="100%"></stop>
        </linearGradient>
        <path d="M0.30161535,1.03249318 C0.535430611,0.62790138 0.963141455,0.401455428 1.40225792,0.401455428 C1.61579652,0.401455428 1.83250335,0.455401001 2.03083445,0.56831034 L33.5699152,18.4650678 C34.1769478,18.8094413 34.3873182,19.5759703 34.0394467,20.1768989 C33.6915752,20.7784547 32.9166265,20.9860825 32.3095939,20.641709 L0.770513164,2.74495149 C0.163480589,2.39995073 -0.0462561357,1.63342177 0.30161535,1.03249318 Z" id="path-49"></path>
        <linearGradient x1="41.4987005%" y1="67.9600661%" x2="41.4987005%" y2="181.737844%" id="linearGradient-51">
            <stop stop-color="#19FFF3" offset="0%"></stop>
            <stop stop-color="#FFFFFF" offset="100%"></stop>
        </linearGradient>
        <path d="M0.30161535,1.03249318 C-0.0462561357,1.63342177 0.163480589,2.39995073 0.770513164,2.74495149 L0.770513164,2.74495149 L32.3095939,20.641709 C32.9166265,20.9860825 33.6915752,20.7784547 34.0394467,20.1768989 L34.0394467,20.1768989 C34.3873182,19.5759703 34.1769478,18.8094413 33.5699152,18.4650678 L33.5699152,18.4650678 L2.03083445,0.56831034 C1.83250335,0.455401001 1.61579652,0.401455428 1.40225792,0.401455428 L1.40225792,0.401455428 C0.963141455,0.401455428 0.535430611,0.62790138 0.30161535,1.03249318" id="path-52"></path>
        <linearGradient x1="96.2798627%" y1="65.7283694%" x2="3.71950894%" y2="34.2719624%" id="linearGradient-54">
            <stop stop-color="#EE2649" offset="0%"></stop>
            <stop stop-color="#F36E44" offset="100%"></stop>
        </linearGradient>
        <path d="M0.476542373,1.53075557 C0.502060037,2.0072932 0.539060649,2.31720474 0.588182152,2.45919351 L0.588182152,2.45919351 L3.93673759,12.1701875 C4.18744864,12.8976368 4.8247523,13.4163172 5.57816132,13.5051412 L5.57816132,13.5051412 L23.9808626,15.6848957 C25.0296386,15.809379 26.0892595,15.5720827 26.9900331,15.0125562 L26.9900331,15.0125562 L36.690573,9.34467598 C37.2226163,9.01336887 37.5543459,8.45967753 37.6238816,7.86060165 L37.6238816,7.86060165 L37.6385542,6.34151639 C37.6098468,6.67865866 37.5007588,6.39143938 37.3195834,6.10357175 L37.3195834,6.10357175 C37.1620118,5.85330845 36.9502152,5.60304515 36.690573,5.76383608 L36.690573,5.76383608 L26.9900331,11.4323646 C26.0892595,11.9918911 25.0296386,12.2285391 23.9808626,12.1040558 L23.9808626,12.1040558 L5.57816132,9.92494969 C4.8247523,9.83547732 4.18744864,9.31744526 3.93673759,8.59064433 L3.93673759,8.59064433 L0.588182152,0.459032165 C0.584992444,0.449955258 0.581802736,0.445416804 0.578613028,0.445416804 L0.578613028,0.445416804 C0.549905657,0.445416804 0.51545681,0.807196392 0.476542373,1.53075557 L0.476542373,1.53075557 Z" id="path-55"></path>
        <path d="M13.6194152,0.407485862 C12.8034878,0.411921944 11.9996814,0.626755081 11.2877386,1.03550839 L11.2877386,1.03550839 L1.46790361,6.66743196 C0.64304513,7.14082533 0.273039003,8.13070545 0.588182152,9.0242592 L0.588182152,9.0242592 L3.93673759,18.5162082 C4.1868107,19.2266152 4.8247523,19.7329623 5.57752338,19.8204165 L5.57752338,19.8204165 L23.9808626,21.9510035 C25.0296386,22.0720452 26.0892595,21.8413689 26.9893951,21.2938296 L26.9893951,21.2938296 L36.690573,15.7531626 C37.2876863,15.3906713 37.6340886,14.7537766 37.6385542,14.0870968 L37.6385542,14.0870968 L37.6385542,14.0585791 C37.6366404,13.8576879 37.6047433,13.6548956 37.5383974,13.4559056 L37.5383974,13.4559056 L34.3588965,3.88220589 C34.1164787,3.15342091 33.4702438,2.63059691 32.7021621,2.54314271 L32.7021621,2.54314271 L14.1839935,0.437270987 C14.0155769,0.418892931 13.8477982,0.408753314 13.6800196,0.407485862 L13.6800196,0.407485862 L13.6194152,0.407485862 Z" id="path-57"></path>
        <ellipse id="path-59" cx="10.2650602" cy="20.4742268" rx="8.7253012" ry="2.04742268"></ellipse>
        <filter x="-85.0%" y="-366.3%" width="270.0%" height="832.6%" filterUnits="objectBoundingBox" id="filter-60">
            <feOffset dx="0" dy="0" in="SourceAlpha" result="shadowOffsetOuter1"></feOffset>
            <feGaussianBlur stdDeviation="5" in="shadowOffsetOuter1" result="shadowBlurOuter1"></feGaussianBlur>
            <feColorMatrix values="0 0 0 0 0.933333333   0 0 0 0 0.149019608   0 0 0 0 0.28627451  0 0 0 0.6 0" type="matrix" in="shadowBlurOuter1"></feColorMatrix>
        </filter>
        <path d="M0.0967252424,1.8435586 C0.131724508,2.49153275 0.183905231,2.91243367 0.252631061,3.10626137 L0.252631061,3.10626137 L4.94571437,16.3072449 C5.29761607,17.2958289 6.19041552,18.0002577 7.24612063,18.1213216 L7.24612063,18.1213216 L33.0393065,21.0845645 C34.5086393,21.2533012 35.9938808,20.9315096 37.2557634,20.1706261 L37.2557634,20.1706261 L50.8520235,12.4645638 C51.5984624,12.0154355 52.0629981,11.2627066 52.160996,10.4485048 L52.160996,10.4485048 L52.1807229,8.38351842 C52.1406328,8.84268307 51.9872724,8.45126402 51.7333686,8.06047226 L51.7333686,8.06047226 C51.5125551,7.71986242 51.2160159,7.37925258 50.8520235,7.59817124 L50.8520235,7.59817124 L37.2557634,15.3036064 C35.9938808,16.0644898 34.5086393,16.3862815 33.0393065,16.2175447 L33.0393065,16.2175447 L7.24612063,13.2543018 C6.19041552,13.1332379 5.29761607,12.4288091 4.94571437,11.4402251 L4.94571437,11.4402251 L0.252631061,0.387028123 C0.248176609,0.374482641 0.243722157,0.3682099 0.239267705,0.3682099 L0.239267705,0.3682099 C0.198541287,0.3682099 0.150815016,0.859992799 0.0967252424,1.8435586 L0.0967252424,1.8435586 Z" id="path-61"></path>
        <path d="M18.486612,0.428374448 C17.3532721,0.440613718 16.2371137,0.746595466 15.2482254,1.32506201 L15.2482254,1.32506201 L1.48524155,9.36883905 C0.328993094,10.0452198 -0.188996033,11.4585333 0.252631061,12.7352825 L0.252631061,12.7352825 L4.94571437,26.290596 C5.29697972,27.3058112 6.19041552,28.0292165 7.24548428,28.1541859 L7.24548428,28.1541859 L33.0380338,31.1966107 C34.5080029,31.369893 35.9932445,31.0394327 37.2557634,30.2586961 L37.2557634,30.2586961 L50.8520235,22.345686 C51.9522731,21.6635078 52.4448083,20.3043046 52.0407258,19.0642734 L52.0407258,19.0642734 L47.5843648,5.39107632 C47.2439174,4.3500942 46.338391,3.60414291 45.2623227,3.47852935 L45.2623227,3.47852935 L19.3075038,0.471533979 C19.0803268,0.445122922 18.8531497,0.430951136 18.6259727,0.428374448 L18.6259727,0.428374448 L18.486612,0.428374448 Z" id="path-63"></path>
        <ellipse id="path-65" cx="17.1084337" cy="34.1237113" rx="14.5421687" ry="3.41237113"></ellipse>
        <filter x="-51.6%" y="-219.8%" width="203.1%" height="539.6%" filterUnits="objectBoundingBox" id="filter-66">
            <feOffset dx="0" dy="0" in="SourceAlpha" result="shadowOffsetOuter1"></feOffset>
            <feGaussianBlur stdDeviation="5" in="shadowOffsetOuter1" result="shadowBlurOuter1"></feGaussianBlur>
            <feColorMatrix values="0 0 0 0 0.933333333   0 0 0 0 0.149019608   0 0 0 0 0.28627451  0 0 0 0.6 0" type="matrix" in="shadowBlurOuter1"></feColorMatrix>
        </filter>
        <path d="M0.268944578,1.29426362 C0.268944578,2.19610457 0.884848193,3.24418999 1.64446265,3.63417526 L1.64446265,3.63417526 C2.40407711,4.02476988 3.01998072,3.61041053 3.01998072,2.70796024 L3.01998072,2.70796024 C3.01998072,1.80672865 2.40407711,0.758643225 1.64446265,0.368657953 L1.64446265,0.368657953 C1.45079518,0.268724227 1.2660241,0.221804124 1.09836145,0.221804124 L1.09836145,0.221804124 C0.610428916,0.221804124 0.268944578,0.623367084 0.268944578,1.29426362 L0.268944578,1.29426362 Z" id="path-67"></path>
        <path d="M0.463980723,1.32534057 C0.463980723,2.22718152 1.0792,3.27526694 1.8394988,3.66525221 L1.8394988,3.66525221 C2.59911325,4.05584683 3.21501687,3.64148748 3.21501687,2.73903719 L3.21501687,2.73903719 C3.21501687,1.8378056 2.59911325,0.789720177 1.8394988,0.399734904 L1.8394988,0.399734904 C1.64583133,0.299801178 1.4603759,0.252881075 1.29339759,0.252881075 L1.29339759,0.252881075 C0.80546506,0.252881075 0.463980723,0.653834683 0.463980723,1.32534057 L0.463980723,1.32534057 Z" id="path-69"></path>
        <path d="M0.65833253,1.35641753 C0.65833253,2.25886782 1.27423614,3.30634389 2.0338506,3.69693851 L2.0338506,3.69693851 C2.79346506,4.08692378 3.40936867,3.67256443 3.40936867,2.77072349 L3.40936867,2.77072349 C3.40936867,1.86888255 2.79346506,0.820797128 2.0338506,0.430811856 L2.0338506,0.430811856 C1.8394988,0.33087813 1.65472771,0.283958027 1.4877494,0.283958027 L1.4877494,0.283958027 C0.999816867,0.283958027 0.65833253,0.685520987 0.65833253,1.35641753 L0.65833253,1.35641753 Z" id="path-71"></path>
        <path d="M0.521340635,3.0041378 C0.521340635,5.12430086 1.80353998,7.58791907 3.38498138,8.50630189 L3.38498138,8.50630189 C4.96642278,9.42468471 6.248,8.44999777 6.248,6.32920911 L6.248,6.32920911 C6.248,4.20904605 4.96642278,1.74542784 3.38498138,0.827045017 L3.38498138,0.827045017 C2.98122234,0.593070103 2.59674918,0.48233866 2.24835926,0.48233866 L2.24835926,0.48233866 C1.23242935,0.48233866 0.521340635,1.42511993 0.521340635,3.0041378 L0.521340635,3.0041378 Z" id="path-73"></path>
        <polygon id="path-75" points="0.532006487 22.8846652 112.499893 87.3330679 112.499893 159.292959 140.639396 175.490699 140.639396 80.9313978 112.499893 64.7336571 0.532006487 0.285891174"></polygon>
        <path d="M3.61168041,0.379413015 C1.57136462,0.379413015 0.144341154,2.29183376 0.144341154,5.4909317 L0.144341154,5.4909317 C0.144341154,9.78923969 2.71853012,14.7817519 5.89403551,16.6429871 L5.89403551,16.6429871 C9.0695409,18.5035825 11.6437299,16.5284594 11.6437299,12.2307912 L11.6437299,12.2307912 C11.6437299,7.93248325 9.0695409,2.93997101 5.89403551,1.07937564 L5.89403551,1.07937564 C5.08408624,0.60462951 4.31321623,0.379413015 3.61420165,0.379413015 L3.61420165,0.379413015 C3.61357134,0.379413015 3.61231072,0.379413015 3.61168041,0.379413015 L3.61168041,0.379413015 Z" id="path-77"></path>
        <path d="M0.14822747,7.10391688 C0.14822747,12.7580026 3.64197494,19.3257506 7.95032337,21.7737004 L7.95032337,21.7737004 C12.2586718,24.2216501 15.7517692,21.6233428 15.7517692,15.9692571 L15.7517692,15.9692571 C15.7517692,10.3158112 12.2586718,3.74806314 7.95032337,1.3001134 L7.95032337,1.3001134 C6.8496694,0.675009665 5.8023253,0.378773196 4.8531494,0.378773196 L4.8531494,0.378773196 C2.08493639,0.379413015 0.14822747,2.89518363 0.14822747,7.10391688 L0.14822747,7.10391688 Z" id="path-79"></path>
        <path d="M6.04253965,1.47427071 L3.86029924,2.72231386 C3.80618885,2.75454181 3.7476223,2.78108247 3.70051443,2.81394234 L3.70051443,2.81394234 C1.47880527,4.09421344 0.109493976,6.8196869 0.109493976,10.6933601 L0.109493976,10.6933601 C0.109493976,18.4868366 5.65867414,27.9947136 12.5052306,31.914517 L12.5052306,31.914517 C15.8384309,33.8248129 18.8692496,34.062415 21.0979613,32.8996812 L21.0979613,32.8996812 L21.520659,32.6570237 L23.6436963,31.4487915 C23.6577013,31.4424723 23.6697966,31.4361531 23.6774357,31.429202 L23.6774357,31.429202 L23.7430048,31.3963421 L23.7366388,31.389391 C25.9386136,30.1021688 27.2951931,27.3912295 27.2951931,23.5365139 L27.2951931,23.5365139 C27.2951931,15.7360863 21.7453763,6.23516037 14.8988198,2.3090378 L14.8988198,2.3090378 C12.8980084,1.16210195 11.0086007,0.619282169 9.33627122,0.619282169 L9.33627122,0.619282169 C8.10701037,0.619282169 6.99551919,0.912493318 6.04253965,1.47427071 L6.04253965,1.47427071 Z" id="path-81"></path>
        <path d="M6.99307229,0.0908961997 C2.90950301,0.0908961997 0.105858434,3.29578179 0.105858434,8.84744199 L0.105858434,8.84744199 C0.105858434,16.6924832 5.7015994,26.2512039 12.601003,30.1985144 L12.601003,30.1985144 C19.5010482,34.1445536 25.0942229,30.9854339 25.0942229,23.1403927 L25.0942229,23.1403927 C25.0942229,19.7295604 24.0356386,15.994553 22.273256,12.5373192 L22.273256,12.5373192 C22.2373283,12.4654921 22.2014006,12.3930294 22.1648313,12.321838 L22.1648313,12.321838 L18.991003,7.4420469 C17.1221205,5.10417121 14.9356627,3.1260665 12.601003,1.79059157 L12.601003,1.79059157 C10.5852018,0.636909036 8.6816747,0.0908961997 6.99563855,0.0908961997 L6.99563855,0.0908961997 C6.99435542,0.0908961997 6.99371386,0.0908961997 6.99307229,0.0908961997 L6.99307229,0.0908961997 Z" id="path-83"></path>
        <path d="M0.431458405,0.714678479 C-0.13621572,1.03330863 -0.13621572,2.07045619 0.431458405,3.03338466 L0.431458405,3.03338466 L6.71823752,13.6767835 C7.00240046,14.1579278 7.37520138,14.529663 7.7466988,14.7401637 L7.7466988,14.7401637 C8.11949971,14.9513041 8.49164888,15.0024897 8.77646357,14.8431746 L8.77646357,14.8431746 L12.6439472,12.6780251 C13.2122731,12.3613144 13.2122731,11.3216076 12.6439472,10.3593189 L12.6439472,10.3593189 C12.0762731,9.39830992 11.1533953,8.8749375 10.5857212,9.19420747 L10.5857212,9.19420747 L7.7466988,10.7822397 L2.48968445,1.88106959 C2.0341113,1.11008698 1.3517292,0.62126482 0.806214573,0.62126482 L0.806214573,0.62126482 C0.671302352,0.62126482 0.54421113,0.65133634 0.431458405,0.714678479 L0.431458405,0.714678479 Z" id="path-85"></path>
        <path d="M0.176311914,2.73842784 C0.176311914,4.63491872 1.34529317,6.83721055 2.78772423,7.6581483 L2.78772423,7.6581483 C4.22948996,8.47908604 5.39847122,7.60827518 5.39847122,5.71244052 L5.39847122,5.71244052 C5.39847122,3.81594964 4.22948996,1.61365781 2.78772423,0.792720063 L2.78772423,0.792720063 C2.41913253,0.582727994 2.06850469,0.483637986 1.75047791,0.483637986 L1.75047791,0.483637986 C0.824341365,0.483637986 0.176311914,1.32688739 0.176311914,2.73842784 L0.176311914,2.73842784 Z" id="path-87"></path>
        <path d="M0.608109772,2.21185631 C0.608109772,4.0602951 1.7764257,6.20816946 3.21885676,7.00858376 L3.21885676,7.00858376 C4.66062249,7.80899807 5.82960375,6.95931765 5.82960375,5.11087887 L5.82960375,5.11087887 C5.82960375,3.26244008 4.66062249,1.11456572 3.21885676,0.314151418 L3.21885676,0.314151418 C2.85026506,0.109409149 2.50030254,0.0127963918 2.18227577,0.0127963918 L2.18227577,0.0127963918 C1.2554739,0.0127963918 0.608109772,0.835604381 0.608109772,2.21185631 L0.608109772,2.21185631 Z" id="path-89"></path>
        <path d="M0.0801957831,2.41467912 C0.0801957831,4.26311791 1.20678614,6.41099227 2.59770181,7.21140657 L2.59770181,7.21140657 C3.98861747,8.01182088 5.11520783,7.16214046 5.11520783,5.31370168 L5.11520783,5.31370168 C5.11520783,3.46398325 3.98861747,1.31674871 2.59770181,0.516974227 L2.59770181,0.516974227 C2.24291566,0.312871778 1.90481024,0.215619201 1.59814157,0.215619201 L1.59814157,0.215619201 C0.704439759,0.215619201 0.0801957831,1.03842719 0.0801957831,2.41467912 L0.0801957831,2.41467912 Z" id="path-91"></path>
        <path d="M0.0801957831,2.53688466 C0.0801957831,4.38532345 1.20678614,6.53319781 2.59770181,7.33361211 L2.59770181,7.33361211 C3.98861747,8.13402642 5.11520783,7.28434601 5.11520783,5.43590722 L5.11520783,5.43590722 C5.11520783,3.58746843 3.98861747,1.43959407 2.59770181,0.639179768 L2.59770181,0.639179768 C2.24291566,0.4344375 1.90481024,0.337824742 1.59814157,0.337824742 L1.59814157,0.337824742 C0.705081325,0.337824742 0.0801957831,1.15999291 0.0801957831,2.53688466 L0.0801957831,2.53688466 Z" id="path-93"></path>
        <path d="M0.410507363,2.4888982 C0.410507363,4.3379768 1.57948862,6.48521134 3.02125435,7.28562564 L3.02125435,7.28562564 C4.46302008,8.08603995 5.63133601,7.23699936 5.63133601,5.38792075 L5.63133601,5.38792075 C5.63133601,3.53948196 4.46302008,1.3916076 3.02125435,0.591193299 L3.02125435,0.591193299 C2.65332798,0.386451031 2.30270013,0.289838273 1.98467336,0.289838273 L1.98467336,0.289838273 C1.05853681,0.289838273 0.410507363,1.11264626 0.410507363,2.4888982 L0.410507363,2.4888982 Z" id="path-95"></path>
    </defs>
    <g id="figure2" stroke="none" stroke-width="1" fill="none" fill-rule="evenodd">
        <g id="Group-16-Copy">
            <g id="Group-14" transform="translate(347.301205, 44.360825)" opacity="0.2">
                <g id="Group-13">
                    <mask id="mask-2" fill="white">
                        <use xlink:href="#path-1"></use>
                    </mask>
                    <g id="Clip-12"></g>
                    <polygon id="Fill-11" fill="url(#linearGradient-3)" mask="url(#mask-2)" points="-523.518072 385.288184 246.361446 385.288184 246.361446 -185.979305 -523.518072 -185.979305"></polygon>
                </g>
            </g>
            <g id="Group-17" transform="translate(360.132530, 81.896907)">
                <mask id="mask-5" fill="white">
                    <use xlink:href="#path-4"></use>
                </mask>
                <g id="Clip-16"></g>
                <polygon id="Fill-15" fill="url(#linearGradient-6)" mask="url(#mask-5)" points="-529.7278 343.74621 230.647033 343.74621 230.647033 -220.800485 -529.7278 -220.800485"></polygon>
            </g>
            <g id="Group-20" transform="translate(360.132530, 81.896907)">
                <mask id="mask-8" fill="white">
                    <use xlink:href="#path-7"></use>
                </mask>
                <g id="Clip-19"></g>
                <path d="M1.40225792,0.402082702 C0.962507809,0.402082702 0.535430611,0.628528654 0.30161535,1.03249318 L0.30161535,1.03249318 C-0.0468897813,1.63404904 0.163480589,2.400578 0.770513164,2.74495149 L0.770513164,2.74495149 L32.3095939,20.641709 C32.9166265,20.9867097 33.6909415,20.7784547 34.038813,20.1775262 L34.038813,20.1775262 C34.3873182,19.5759703 34.1769478,18.8094413 33.5699152,18.4644406 L33.5699152,18.4644406 L2.03146809,0.567683065 C1.83377064,0.455401001 1.6183311,0.402082702 1.40605979,0.402082702 L1.40605979,0.402082702 C1.4047925,0.402082702 1.40352521,0.402082702 1.40225792,0.402082702" id="Fill-18" fill="url(#linearGradient-9)" mask="url(#mask-8)"></path>
            </g>
            <g id="Group-24" transform="translate(388.361446, 33.270619)">
                <mask id="mask-11" fill="white">
                    <use xlink:href="#path-10"></use>
                </mask>
                <g id="Clip-23"></g>
                <polygon id="Fill-22" fill="#B1BAC9" mask="url(#mask-11)" points="-2.71316561 18.9590658 40.8282622 18.9590658 40.8282622 -2.79633577 -2.71316561 -2.79633577"></polygon>
            </g>
            <g id="Group-27" transform="translate(388.361446, 25.592784)">
                <mask id="mask-13" fill="white">
                    <use xlink:href="#path-12"></use>
                </mask>
                <g id="Clip-26"></g>
                <polygon id="Fill-25" fill="#FFFFFF" mask="url(#mask-13)" points="-2.71316561 25.1513202 40.8282622 25.1513202 40.8282622 -2.76114448 -2.71316561 -2.76114448"></polygon>
            </g>
            <g id="Group" transform="translate(396.915663, 17.914948)">
                <g id="Oval" fill="black" fill-opacity="1">
                    <use filter="url(#filter-15)" xlink:href="#path-14"></use>
                </g>
                <path d="M17.7042578,3.54383602 C17.7042578,3.54383602 17.7042578,3.54383602 17.7042578,3.54383602 C17.7042578,3.54383602 17.7042578,3.54383602 17.7042578,3.54383602 C17.7042578,3.54383602 17.7042578,3.54383602 17.7042578,3.54383602 C17.7042578,3.54383602 17.7042578,3.53240429 17.7042578,3.54383602 C17.6817477,3.50954083 17.4003704,3.16658896 16.9501668,2.74361498 C16.9501668,2.74361498 16.9501668,2.74361498 16.9501668,2.74361498 C16.9501668,2.74361498 16.9501668,2.74361498 16.9501668,2.74361498 C16.8713811,2.66359288 16.7813404,2.58357077 16.6800446,2.50354867 C16.6800446,2.50354867 16.6800446,2.50354867 16.6800446,2.50354867 C16.6800446,2.50354867 16.6800446,2.50354867 16.6800446,2.50354867 C14.9129953,0.948833515 12.6057017,0 10.0845614,0 C4.51329141,0 2.34479103e-13,4.58412337 2.34479103e-13,10.2428293 C2.34479103e-13,12.8035366 0.934172537,15.147041 2.46486489,16.9418225 C2.46486489,16.9418225 2.46486489,16.9418225 2.46486489,16.9418225 C2.46486489,16.9418225 2.46486489,16.9418225 2.46486489,16.9418225 C2.47611998,16.964686 2.49863016,16.9875494 2.52114034,17.0104129 C2.52114034,17.0104129 2.53239543,17.0218446 2.53239543,17.0218446 C2.55490561,17.0561398 2.58867089,17.0790033 2.62243616,17.1247302 C2.62243616,17.1247302 2.62243616,17.1247302 2.62243616,17.1247302 C2.82502779,17.341933 3.15142543,17.6848849 3.47782306,17.9706781 C3.47782306,17.9706781 3.47782306,17.9706781 3.47782306,17.9706781 C5.24487231,19.5253933 7.55216593,20.4742268 10.0733063,20.4742268 C15.6445762,20.4742268 20.1578676,15.8901034 20.1578676,10.2313975 C20.1578676,7.68212195 19.2349502,5.33861749 17.7042578,3.54383602 Z M15.6558313,3.55526775 C9.791929,9.5111986 9.57808227,9.72840146 9.57808227,9.72840146 L9.57808227,9.72840146 C9.57808227,9.72840146 9.55557209,9.75126492 9.37549064,9.93417258 L9.37549064,1.50898824 C9.61184755,1.48612478 9.84820445,1.47469305 10.0845614,1.47469305 C12.2005184,1.47469305 14.1476491,2.25205063 15.6558313,3.55526775 Z M7.93483902,1.74905455 L7.93483902,8.11652766 L1.7107738,8.11652766 C2.46486489,5.00709734 4.87345432,2.54927559 7.93483902,1.74905455 Z M1.44065162,10.2428293 C1.44065162,10.0141947 1.45190671,9.79699183 1.4631618,9.57978898 L7.92358393,9.57978898 L7.92358393,11.3974339 C7.02317666,12.3119722 5.63880049,13.7180749 3.47782306,15.9129669 C2.21725289,14.3811152 1.44065162,12.4034261 1.44065162,10.2428293 Z M10.0845614,19.0223972 C7.9573492,19.0223972 6.02147358,18.2450396 4.51329141,16.9418225 C12.0767124,9.25970056 15.2956684,5.99022604 16.6800446,4.58412337 C17.9518698,6.11597506 18.7284711,8.0936642 18.7284711,10.2428293 C18.717216,15.0898824 14.8454648,19.0223972 10.0845614,19.0223972 Z" id="Shape" fill="url(#linearGradient-16)" fill-rule="nonzero"></path>
            </g>
            <g id="Group-31" transform="translate(319.072289, 145.878866)">
                <mask id="mask-18" fill="white">
                    <use xlink:href="#path-17"></use>
                </mask>
                <g id="Clip-30"></g>
                <polygon id="Fill-29" fill="#B1BAC9" mask="url(#mask-18)" points="-3.08502615 24.4147627 55.3624743 24.4147627 55.3624743 -2.61824212 -3.08502615 -2.61824212"></polygon>
            </g>
            <g id="Group-34" transform="translate(319.072289, 134.788660)">
                <mask id="mask-20" fill="white">
                    <use xlink:href="#path-19"></use>
                </mask>
                <g id="Clip-33"></g>
                <polygon id="Fill-32" fill="#FFFFFF" mask="url(#mask-20)" points="-3.09846102 34.6165204 55.5921034 34.6165204 55.5921034 -2.6391731 -3.09846102 -2.6391731"></polygon>
            </g>
            <g id="Group" transform="translate(328.481928, 116.873711)">
                <g id="Oval" fill="black" fill-opacity="1">
                    <use filter="url(#filter-22)" xlink:href="#path-21"></use>
                </g>
                <path d="M29.5070964,5.90639336 C29.5070964,5.90639336 29.5070964,5.90639336 29.5070964,5.90639336 C29.5070964,5.90639336 29.5070964,5.90639336 29.5070964,5.90639336 C29.5070964,5.90639336 29.5070964,5.90639336 29.5070964,5.90639336 C29.5070964,5.90639336 29.5070964,5.88734048 29.5070964,5.90639336 C29.4695794,5.84923472 29.0006173,5.27764826 28.2502779,4.57269164 C28.2502779,4.57269164 28.2502779,4.57269164 28.2502779,4.57269164 C28.2502779,4.57269164 28.2502779,4.57269164 28.2502779,4.57269164 C28.1189685,4.43932146 27.9689006,4.30595129 27.8000743,4.17258112 C27.8000743,4.17258112 27.8000743,4.17258112 27.8000743,4.17258112 C27.8000743,4.17258112 27.8000743,4.17258112 27.8000743,4.17258112 C24.8549922,1.58138919 21.0095028,0 16.8076023,0 C7.52215235,0 2.34479103e-13,7.64020561 2.34479103e-13,17.0713821 C2.34479103e-13,21.3392276 1.55695423,25.2450684 4.10810814,28.2363709 C4.10810814,28.2363709 4.10810814,28.2363709 4.10810814,28.2363709 C4.10810814,28.2363709 4.10810814,28.2363709 4.10810814,28.2363709 C4.12686663,28.2744766 4.1643836,28.3125824 4.20190057,28.3506881 C4.20190057,28.3506881 4.22065905,28.369741 4.22065905,28.369741 C4.25817602,28.4268997 4.31445148,28.4650054 4.37072693,28.541217 C4.37072693,28.541217 4.37072693,28.541217 4.37072693,28.541217 C4.70837965,28.9032217 5.25237571,29.4748082 5.79637176,29.9511302 C5.79637176,29.9511302 5.79637176,29.9511302 5.79637176,29.9511302 C8.74145386,32.5423221 12.5869432,34.1237113 16.7888438,34.1237113 C26.0742937,34.1237113 33.5964461,26.4835057 33.5964461,17.0523292 C33.5964461,12.8035366 32.0582503,8.89769581 29.5070964,5.90639336 Z M26.0930522,5.92544625 C16.3198817,15.8519977 15.9634705,16.2140024 15.9634705,16.2140024 L15.9634705,16.2140024 C15.9634705,16.2140024 15.9259535,16.2521082 15.6258177,16.5569543 L15.6258177,2.5149804 C16.0197459,2.47687464 16.4136741,2.45782175 16.8076023,2.45782175 C20.3341974,2.45782175 23.5794152,3.75341772 26.0930522,5.92544625 Z M13.2247317,2.91509092 L13.2247317,13.5275461 L2.85128967,13.5275461 C4.10810814,8.34516224 8.12242386,4.24879265 13.2247317,2.91509092 Z M2.40108604,17.0713821 C2.40108604,16.6903245 2.41984452,16.3283197 2.43860301,15.966315 L13.2059732,15.966315 L13.2059732,18.9957232 C11.7052944,20.5199537 9.39800082,22.8634582 5.79637176,26.5216115 C3.69542148,23.9685253 2.40108604,20.6723768 2.40108604,17.0713821 Z M16.8076023,31.7039953 C13.2622487,31.7039953 10.0357893,30.4083994 7.52215235,28.2363709 C20.1278541,15.4328343 25.4927807,9.98371007 27.8000743,7.64020561 C29.9197831,10.1932918 31.2141185,13.4894403 31.2141185,17.0713821 C31.19536,25.149804 24.7424413,31.7039953 16.8076023,31.7039953 Z" id="Shape" fill="url(#linearGradient-23)" fill-rule="nonzero"></path>
            </g>
            <g id="Group-41" transform="translate(11.975904, 61.422680)" opacity="0.2">
                <g id="Group-40">
                    <mask id="mask-25" fill="white">
                        <use xlink:href="#path-24"></use>
                    </mask>
                    <g id="Clip-39"></g>
                    <polygon id="Fill-38" fill="url(#linearGradient-26)" mask="url(#mask-25)" points="-184.053634 369.343062 577.54761 369.343062 577.54761 -204.765325 -184.053634 -204.765325"></polygon>
                </g>
            </g>
            <g id="Group-44" transform="translate(19.674699, 89.574742)">
                <mask id="mask-28" fill="white">
                    <use xlink:href="#path-27"></use>
                </mask>
                <g id="Clip-43"></g>
                <polygon id="Fill-42" fill="url(#linearGradient-29)" mask="url(#mask-28)" points="-191.994645 329.625573 568.380187 329.625573 568.380187 -224.884737 -191.994645 -224.884737"></polygon>
            </g>
            <g id="Group-47" transform="translate(19.674699, 89.574742)">
                <mask id="mask-31" fill="white">
                    <use xlink:href="#path-30"></use>
                </mask>
                <g id="Clip-46"></g>
                <path d="M14.956573,0.772617698 L0.634912985,8.78960452 C0.0278804105,9.12970418 -0.179955377,9.88260596 0.1691834,10.4728514 L0.1691834,10.4728514 C0.518322178,11.0630968 1.29327086,11.265185 1.89966979,10.9257015 L1.89966979,10.9257015 L16.2206961,2.90809851 C16.8277287,2.56861498 17.0361981,1.81509708 16.6870593,1.22608391 L16.6870593,1.22608391 C16.4519768,0.829917096 16.0255332,0.608112973 15.5876841,0.608112973 L15.5876841,0.608112973 C15.3728782,0.608112973 15.1555377,0.661099513 14.956573,0.772617698" id="Fill-45" fill="url(#linearGradient-32)" mask="url(#mask-31)"></path>
            </g>
            <g id="Group-51" transform="translate(0.000000, 55.451031)">
                <mask id="mask-34" fill="white">
                    <use xlink:href="#path-33"></use>
                </mask>
                <g id="Clip-50"></g>
                <polygon id="Fill-49" fill="#B1BAC9" mask="url(#mask-34)" points="-3.15155358 13.1527713 27.0592391 13.1527713 27.0592391 -3.04170232 -3.15155358 -3.04170232"></polygon>
            </g>
            <g id="Group-54" transform="translate(0.000000, 50.332474)">
                <mask id="mask-36" fill="white">
                    <use xlink:href="#path-35"></use>
                </mask>
                <g id="Clip-53"></g>
                <polygon id="Fill-52" fill="#FFFFFF" mask="url(#mask-36)" points="-3.15155358 17.3696738 27.0592391 17.3696738 27.0592391 -2.88916562 -3.15155358 -2.88916562"></polygon>
            </g>
            <g id="Group" transform="translate(5.132530, 44.360825)">
                <g id="Oval" fill="black" fill-opacity="1">
                    <use filter="url(#filter-38)" xlink:href="#path-37"></use>
                </g>
                <path d="M11.8028386,2.36255735 C11.8028386,2.36255735 11.8028386,2.36255735 11.8028386,2.36255735 C11.8028386,2.36255735 11.8028386,2.36255735 11.8028386,2.36255735 C11.8028386,2.36255735 11.8028386,2.36255735 11.8028386,2.36255735 C11.8028386,2.36255735 11.8028386,2.35493619 11.8028386,2.36255735 C11.7878318,2.33969389 11.6002469,2.11105931 11.3001112,1.82907665 C11.3001112,1.82907665 11.3001112,1.82907665 11.3001112,1.82907665 C11.3001112,1.82907665 11.3001112,1.82907665 11.3001112,1.82907665 C11.2475874,1.77572859 11.1875603,1.72238052 11.1200297,1.66903245 C11.1200297,1.66903245 11.1200297,1.66903245 11.1200297,1.66903245 C11.1200297,1.66903245 11.1200297,1.66903245 11.1200297,1.66903245 C9.94199688,0.632555676 8.40380113,0 6.72304091,0 C3.00886094,0 2.34479103e-13,3.05608224 2.34479103e-13,6.82855284 C2.34479103e-13,8.53569106 0.622781691,10.0980274 1.64324326,11.2945483 C1.64324326,11.2945483 1.64324326,11.2945483 1.64324326,11.2945483 C1.64324326,11.2945483 1.64324326,11.2945483 1.64324326,11.2945483 C1.65074665,11.3097906 1.66575344,11.325033 1.68076023,11.3402753 C1.68076023,11.3402753 1.68826362,11.3478964 1.68826362,11.3478964 C1.70327041,11.3707599 1.72578059,11.3860022 1.74829077,11.4164868 C1.74829077,11.4164868 1.74829077,11.4164868 1.74829077,11.4164868 C1.88335186,11.5612887 2.10095028,11.7899233 2.31854871,11.9804521 C2.31854871,11.9804521 2.31854871,11.9804521 2.31854871,11.9804521 C3.49658154,13.0169289 5.03477729,13.6494845 6.71553751,13.6494845 C10.4297175,13.6494845 13.4385784,10.5934023 13.4385784,6.82093169 C13.4385784,5.12141463 12.8233001,3.55907832 11.8028386,2.36255735 Z M10.4372209,2.3701785 C6.52795267,6.34079907 6.38538818,6.48560097 6.38538818,6.48560097 L6.38538818,6.48560097 C6.38538818,6.48560097 6.3703814,6.50084328 6.25032709,6.62278172 L6.25032709,1.00599216 C6.40789836,0.990749855 6.56546964,0.983128702 6.72304091,0.983128702 C8.13367895,0.983128702 9.43176609,1.50136709 10.4372209,2.3701785 Z M5.28989268,1.16603637 L5.28989268,5.41101844 L1.14051587,5.41101844 C1.64324326,3.33806489 3.24896955,1.69951706 5.28989268,1.16603637 Z M0.960434415,6.82855284 C0.960434415,6.67612979 0.967937809,6.53132789 0.975441203,6.38652599 L5.28238928,6.38652599 L5.28238928,7.59828927 C4.68211777,8.20798149 3.75920033,9.14538327 2.31854871,10.6086446 C1.47816859,9.58741013 0.960434415,8.26895071 0.960434415,6.82855284 Z M6.72304091,12.6815981 C5.30489947,12.6815981 4.01431572,12.1633598 3.00886094,11.2945483 C8.05114162,6.17313371 10.1971123,3.99348403 11.1200297,3.05608224 C11.9679132,4.07731671 12.4856474,5.39577613 12.4856474,6.82855284 C12.478144,10.0599216 9.89697651,12.6815981 6.72304091,12.6815981 Z" id="Shape" fill="url(#linearGradient-39)" fill-rule="nonzero"></path>
            </g>
            <g id="Group-58" transform="translate(35.072289, 129.670103)">
                <mask id="mask-41" fill="white">
                    <use xlink:href="#path-40"></use>
                </mask>
                <g id="Clip-57"></g>
                <polygon id="Fill-56" fill="#B1BAC9" mask="url(#mask-41)" points="-3.16822847 17.0588142 37.3217314 17.0588142 37.3217314 -2.79269195 -3.16822847 -2.79269195"></polygon>
            </g>
            <g id="Group-61" transform="translate(35.072289, 121.992268)">
                <mask id="mask-43" fill="white">
                    <use xlink:href="#path-42"></use>
                </mask>
                <g id="Clip-60"></g>
                <polygon id="Fill-59" fill="#FFFFFF" mask="url(#mask-43)" points="-3.16822847 23.4410702 37.322365 23.4410702 37.322365 -2.82416366 -3.16822847 -2.82416366"></polygon>
            </g>
            <g id="Group" transform="translate(41.915663, 111.755155)">
                <g id="Oval" fill="black" fill-opacity="1">
                    <use filter="url(#filter-45)" xlink:href="#path-44"></use>
                </g>
                <path d="M17.7042578,3.54383602 C17.7042578,3.54383602 17.7042578,3.54383602 17.7042578,3.54383602 C17.7042578,3.54383602 17.7042578,3.54383602 17.7042578,3.54383602 C17.7042578,3.54383602 17.7042578,3.54383602 17.7042578,3.54383602 C17.7042578,3.54383602 17.7042578,3.53240429 17.7042578,3.54383602 C17.6817477,3.50954083 17.4003704,3.16658896 16.9501668,2.74361498 C16.9501668,2.74361498 16.9501668,2.74361498 16.9501668,2.74361498 C16.9501668,2.74361498 16.9501668,2.74361498 16.9501668,2.74361498 C16.8713811,2.66359288 16.7813404,2.58357077 16.6800446,2.50354867 C16.6800446,2.50354867 16.6800446,2.50354867 16.6800446,2.50354867 C16.6800446,2.50354867 16.6800446,2.50354867 16.6800446,2.50354867 C14.9129953,0.948833515 12.6057017,0 10.0845614,0 C4.51329141,0 2.34479103e-13,4.58412337 2.34479103e-13,10.2428293 C2.34479103e-13,12.8035366 0.934172537,15.147041 2.46486489,16.9418225 C2.46486489,16.9418225 2.46486489,16.9418225 2.46486489,16.9418225 C2.46486489,16.9418225 2.46486489,16.9418225 2.46486489,16.9418225 C2.47611998,16.964686 2.49863016,16.9875494 2.52114034,17.0104129 C2.52114034,17.0104129 2.53239543,17.0218446 2.53239543,17.0218446 C2.55490561,17.0561398 2.58867089,17.0790033 2.62243616,17.1247302 C2.62243616,17.1247302 2.62243616,17.1247302 2.62243616,17.1247302 C2.82502779,17.341933 3.15142543,17.6848849 3.47782306,17.9706781 C3.47782306,17.9706781 3.47782306,17.9706781 3.47782306,17.9706781 C5.24487231,19.5253933 7.55216593,20.4742268 10.0733063,20.4742268 C15.6445762,20.4742268 20.1578676,15.8901034 20.1578676,10.2313975 C20.1578676,7.68212195 19.2349502,5.33861749 17.7042578,3.54383602 Z M15.6558313,3.55526775 C9.791929,9.5111986 9.57808227,9.72840146 9.57808227,9.72840146 L9.57808227,9.72840146 C9.57808227,9.72840146 9.55557209,9.75126492 9.37549064,9.93417258 L9.37549064,1.50898824 C9.61184755,1.48612478 9.84820445,1.47469305 10.0845614,1.47469305 C12.2005184,1.47469305 14.1476491,2.25205063 15.6558313,3.55526775 Z M7.93483902,1.74905455 L7.93483902,8.11652766 L1.7107738,8.11652766 C2.46486489,5.00709734 4.87345432,2.54927559 7.93483902,1.74905455 Z M1.44065162,10.2428293 C1.44065162,10.0141947 1.45190671,9.79699183 1.4631618,9.57978898 L7.92358393,9.57978898 L7.92358393,11.3974339 C7.02317666,12.3119722 5.63880049,13.7180749 3.47782306,15.9129669 C2.21725289,14.3811152 1.44065162,12.4034261 1.44065162,10.2428293 Z M10.0845614,19.0223972 C7.9573492,19.0223972 6.02147358,18.2450396 4.51329141,16.9418225 C12.0767124,9.25970056 15.2956684,5.99022604 16.6800446,4.58412337 C17.9518698,6.11597506 18.7284711,8.0936642 18.7284711,10.2428293 C18.717216,15.0898824 14.8454648,19.0223972 10.0845614,19.0223972 Z" id="Shape" fill="url(#linearGradient-16)" fill-rule="nonzero"></path>
            </g>
            <g id="Group-68" transform="translate(98.373494, 207.301546)" opacity="0.2">
                <g id="Group-67">
                    <mask id="mask-47" fill="white">
                        <use xlink:href="#path-46"></use>
                    </mask>
                    <g id="Clip-66"></g>
                    <polygon id="Fill-65" fill="url(#linearGradient-48)" mask="url(#mask-47)" points="-273.307229 222.159579 496.572289 222.159579 496.572289 -349.10791 -273.307229 -349.10791"></polygon>
                </g>
            </g>
            <g id="Group-71" transform="translate(111.204819, 244.837629)">
                <mask id="mask-50" fill="white">
                    <use xlink:href="#path-49"></use>
                </mask>
                <g id="Clip-70"></g>
                <polygon id="Fill-69" fill="url(#linearGradient-51)" mask="url(#mask-50)" points="-282.605979 182.536765 477.768853 182.536765 477.768853 -382.00993 -282.605979 -382.00993"></polygon>
            </g>
            <g id="Group-74" transform="translate(111.204819, 244.837629)">
                <mask id="mask-53" fill="white">
                    <use xlink:href="#path-52"></use>
                </mask>
                <g id="Clip-73"></g>
                <path d="M0.30161535,1.03249318 C-0.0462561357,1.63342177 0.163480589,2.39995073 0.770513164,2.74495149 L0.770513164,2.74495149 L32.3095939,20.641709 C32.9166265,20.9860825 33.6915752,20.7784547 34.0394467,20.1768989 L34.0394467,20.1768989 C34.3873182,19.5759703 34.1769478,18.8094413 33.5699152,18.4650678 L33.5699152,18.4650678 L2.03083445,0.56831034 C1.83250335,0.455401001 1.61579652,0.401455428 1.40225792,0.401455428 L1.40225792,0.401455428 C0.963141455,0.401455428 0.535430611,0.62790138 0.30161535,1.03249318" id="Fill-72" fill="url(#linearGradient-54)" mask="url(#mask-53)"></path>
            </g>
            <g id="Group-78" transform="translate(140.289157, 196.211340)">
                <mask id="mask-56" fill="white">
                    <use xlink:href="#path-55"></use>
                </mask>
                <g id="Clip-77"></g>
                <polygon id="Fill-76" fill="#B1BAC9" mask="url(#mask-56)" points="-2.71316561 18.9590658 40.8282622 18.9590658 40.8282622 -2.79633577 -2.71316561 -2.79633577"></polygon>
            </g>
            <g id="Group-81" transform="translate(140.289157, 189.386598)">
                <mask id="mask-58" fill="white">
                    <use xlink:href="#path-57"></use>
                </mask>
                <g id="Clip-80"></g>
                <polygon id="Fill-79" fill="#FFFFFF" mask="url(#mask-58)" points="-2.71316561 25.1513202 40.8282622 25.1513202 40.8282622 -2.76114448 -2.71316561 -2.76114448"></polygon>
            </g>
            <g id="Group" transform="translate(148.843373, 181.708763)">
                <g id="Oval" fill="black" fill-opacity="1">
                    <use filter="url(#filter-60)" xlink:href="#path-59"></use>
                </g>
                <path d="M17.7042578,3.54383602 C17.7042578,3.54383602 17.7042578,3.54383602 17.7042578,3.54383602 C17.7042578,3.54383602 17.7042578,3.54383602 17.7042578,3.54383602 C17.7042578,3.54383602 17.7042578,3.54383602 17.7042578,3.54383602 C17.7042578,3.54383602 17.7042578,3.53240429 17.7042578,3.54383602 C17.6817477,3.50954083 17.4003704,3.16658896 16.9501668,2.74361498 C16.9501668,2.74361498 16.9501668,2.74361498 16.9501668,2.74361498 C16.9501668,2.74361498 16.9501668,2.74361498 16.9501668,2.74361498 C16.8713811,2.66359288 16.7813404,2.58357077 16.6800446,2.50354867 C16.6800446,2.50354867 16.6800446,2.50354867 16.6800446,2.50354867 C16.6800446,2.50354867 16.6800446,2.50354867 16.6800446,2.50354867 C14.9129953,0.948833515 12.6057017,0 10.0845614,0 C4.51329141,0 2.34479103e-13,4.58412337 2.34479103e-13,10.2428293 C2.34479103e-13,12.8035366 0.934172537,15.147041 2.46486489,16.9418225 C2.46486489,16.9418225 2.46486489,16.9418225 2.46486489,16.9418225 C2.46486489,16.9418225 2.46486489,16.9418225 2.46486489,16.9418225 C2.47611998,16.964686 2.49863016,16.9875494 2.52114034,17.0104129 C2.52114034,17.0104129 2.53239543,17.0218446 2.53239543,17.0218446 C2.55490561,17.0561398 2.58867089,17.0790033 2.62243616,17.1247302 C2.62243616,17.1247302 2.62243616,17.1247302 2.62243616,17.1247302 C2.82502779,17.341933 3.15142543,17.6848849 3.47782306,17.9706781 C3.47782306,17.9706781 3.47782306,17.9706781 3.47782306,17.9706781 C5.24487231,19.5253933 7.55216593,20.4742268 10.0733063,20.4742268 C15.6445762,20.4742268 20.1578676,15.8901034 20.1578676,10.2313975 C20.1578676,7.68212195 19.2349502,5.33861749 17.7042578,3.54383602 Z M15.6558313,3.55526775 C9.791929,9.5111986 9.57808227,9.72840146 9.57808227,9.72840146 L9.57808227,9.72840146 C9.57808227,9.72840146 9.55557209,9.75126492 9.37549064,9.93417258 L9.37549064,1.50898824 C9.61184755,1.48612478 9.84820445,1.47469305 10.0845614,1.47469305 C12.2005184,1.47469305 14.1476491,2.25205063 15.6558313,3.55526775 Z M7.93483902,1.74905455 L7.93483902,8.11652766 L1.7107738,8.11652766 C2.46486489,5.00709734 4.87345432,2.54927559 7.93483902,1.74905455 Z M1.44065162,10.2428293 C1.44065162,10.0141947 1.45190671,9.79699183 1.4631618,9.57978898 L7.92358393,9.57978898 L7.92358393,11.3974339 C7.02317666,12.3119722 5.63880049,13.7180749 3.47782306,15.9129669 C2.21725289,14.3811152 1.44065162,12.4034261 1.44065162,10.2428293 Z M10.0845614,19.0223972 C7.9573492,19.0223972 6.02147358,18.2450396 4.51329141,16.9418225 C12.0767124,9.25970056 15.2956684,5.99022604 16.6800446,4.58412337 C17.9518698,6.11597506 18.7284711,8.0936642 18.7284711,10.2428293 C18.717216,15.0898824 14.8454648,19.0223972 10.0845614,19.0223972 Z" id="Shape" fill="url(#linearGradient-16)" fill-rule="nonzero"></path>
            </g>
            <g id="Group-85" transform="translate(70.144578, 309.672680)">
                <mask id="mask-62" fill="white">
                    <use xlink:href="#path-61"></use>
                </mask>
                <g id="Clip-84"></g>
                <polygon id="Fill-83" fill="#B1BAC9" mask="url(#mask-62)" points="-3.08502615 24.2648442 55.3624743 24.2648442 55.3624743 -2.76816063 -3.08502615 -2.76816063"></polygon>
            </g>
            <g id="Group-88" transform="translate(70.144578, 297.729381)">
                <mask id="mask-64" fill="white">
                    <use xlink:href="#path-63"></use>
                </mask>
                <g id="Clip-87"></g>
                <polygon id="Fill-86" fill="#FFFFFF" mask="url(#mask-64)" points="-3.0856625 34.4625633 55.3624743 34.4625633 55.3624743 -2.79313023 -3.0856625 -2.79313023"></polygon>
            </g>
            <g id="Group" transform="translate(79.554217, 278.961340)">
                <g id="Oval" fill="black" fill-opacity="1">
                    <use filter="url(#filter-66)" xlink:href="#path-65"></use>
                </g>
                <path d="M29.5070964,5.90639336 C29.5070964,5.90639336 29.5070964,5.90639336 29.5070964,5.90639336 C29.5070964,5.90639336 29.5070964,5.90639336 29.5070964,5.90639336 C29.5070964,5.90639336 29.5070964,5.90639336 29.5070964,5.90639336 C29.5070964,5.90639336 29.5070964,5.88734048 29.5070964,5.90639336 C29.4695794,5.84923472 29.0006173,5.27764826 28.2502779,4.57269164 C28.2502779,4.57269164 28.2502779,4.57269164 28.2502779,4.57269164 C28.2502779,4.57269164 28.2502779,4.57269164 28.2502779,4.57269164 C28.1189685,4.43932146 27.9689006,4.30595129 27.8000743,4.17258112 C27.8000743,4.17258112 27.8000743,4.17258112 27.8000743,4.17258112 C27.8000743,4.17258112 27.8000743,4.17258112 27.8000743,4.17258112 C24.8549922,1.58138919 21.0095028,0 16.8076023,0 C7.52215235,0 2.34479103e-13,7.64020561 2.34479103e-13,17.0713821 C2.34479103e-13,21.3392276 1.55695423,25.2450684 4.10810814,28.2363709 C4.10810814,28.2363709 4.10810814,28.2363709 4.10810814,28.2363709 C4.10810814,28.2363709 4.10810814,28.2363709 4.10810814,28.2363709 C4.12686663,28.2744766 4.1643836,28.3125824 4.20190057,28.3506881 C4.20190057,28.3506881 4.22065905,28.369741 4.22065905,28.369741 C4.25817602,28.4268997 4.31445148,28.4650054 4.37072693,28.541217 C4.37072693,28.541217 4.37072693,28.541217 4.37072693,28.541217 C4.70837965,28.9032217 5.25237571,29.4748082 5.79637176,29.9511302 C5.79637176,29.9511302 5.79637176,29.9511302 5.79637176,29.9511302 C8.74145386,32.5423221 12.5869432,34.1237113 16.7888438,34.1237113 C26.0742937,34.1237113 33.5964461,26.4835057 33.5964461,17.0523292 C33.5964461,12.8035366 32.0582503,8.89769581 29.5070964,5.90639336 Z M26.0930522,5.92544625 C16.3198817,15.8519977 15.9634705,16.2140024 15.9634705,16.2140024 L15.9634705,16.2140024 C15.9634705,16.2140024 15.9259535,16.2521082 15.6258177,16.5569543 L15.6258177,2.5149804 C16.0197459,2.47687464 16.4136741,2.45782175 16.8076023,2.45782175 C20.3341974,2.45782175 23.5794152,3.75341772 26.0930522,5.92544625 Z M13.2247317,2.91509092 L13.2247317,13.5275461 L2.85128967,13.5275461 C4.10810814,8.34516224 8.12242386,4.24879265 13.2247317,2.91509092 Z M2.40108604,17.0713821 C2.40108604,16.6903245 2.41984452,16.3283197 2.43860301,15.966315 L13.2059732,15.966315 L13.2059732,18.9957232 C11.7052944,20.5199537 9.39800082,22.8634582 5.79637176,26.5216115 C3.69542148,23.9685253 2.40108604,20.6723768 2.40108604,17.0713821 Z M16.8076023,31.7039953 C13.2622487,31.7039953 10.0357893,30.4083994 7.52215235,28.2363709 C20.1278541,15.4328343 25.4927807,9.98371007 27.8000743,7.64020561 C29.9197831,10.1932918 31.2141185,13.4894403 31.2141185,17.0713821 C31.19536,25.149804 24.7424413,31.7039953 16.8076023,31.7039953 Z" id="Shape" fill="url(#linearGradient-23)" fill-rule="nonzero"></path>
            </g>
            <polygon id="Fill-615" fill="#DC0A2E" points="107.783133 2.05876028 111.30075 7.1310682 111.30075 16.013638 111.30075 119.602355 111.30075 141.093323 265.525673 229.540026 270.217961 236.306701 273.73494 234.247941 273.73494 93.1552522 111.30075 0"></polygon>
            <polygon id="Fill-616" fill="#EE2649" points="107.783133 122.152885 122.325301 130.523196 122.325301 27.1383525 107.783133 18.7680412"></polygon>
            <polygon id="Fill-617" fill="#FFFFFF" points="123.180723 130.131615 270.313253 214.979381 270.313253 111.294913 123.180723 26.4458763"></polygon>
            <polygon id="Fill-618" fill="#EE2649" points="107.783133 18.5768748 270.313253 111.755155 270.313253 95.7369232 107.783133 2.55927835"></polygon>
            <polygon id="Fill-619" fill="#EE2649" points="107.783133 143.581476 270.313253 237.159794 270.313253 215.571224 107.783133 121.992268"></polygon>
            <g id="Group-622" transform="translate(112.060241, 11.943299)">
                <mask id="mask-68" fill="white">
                    <use xlink:href="#path-67"></use>
                </mask>
                <g id="Clip-621"></g>
                <polygon id="Fill-620" fill="#FFFFFF" mask="url(#mask-68)" points="-3.15274217 6.82778903 6.44166747 6.82778903 6.44166747 -2.82556517 -3.15274217 -2.82556517"></polygon>
            </g>
            <g id="Group-625" transform="translate(115.481928, 13.649485)">
                <mask id="mask-70" fill="white">
                    <use xlink:href="#path-69"></use>
                </mask>
                <g id="Clip-624"></g>
                <polygon id="Fill-623" fill="#FFFFFF" mask="url(#mask-70)" points="-2.95770602 6.85886598 6.63670361 6.85886598 6.63670361 -2.79448822 -2.95770602 -2.79448822"></polygon>
            </g>
            <g id="Group-628" transform="translate(118.903614, 15.355670)">
                <mask id="mask-72" fill="white">
                    <use xlink:href="#path-71"></use>
                </mask>
                <g id="Clip-627"></g>
                <polygon id="Fill-626" fill="#FFFFFF" mask="url(#mask-72)" points="-2.76335422 6.88994293 6.83105542 6.88994293 6.83105542 -2.76341127 -2.76335422 -2.76341127"></polygon>
            </g>
            <g id="Group-631" transform="translate(112.060241, 34.123711)">
                <mask id="mask-74" fill="white">
                    <use xlink:href="#path-73"></use>
                </mask>
                <g id="Clip-630"></g>
                <polygon id="Fill-629" fill="#F36E44" mask="url(#mask-74)" points="-2.58928368 11.9796407 9.35924644 11.9796407 9.35924644 -2.64629381 -2.58928368 -2.64629381"></polygon>
            </g>
            <polygon id="Fill-632" fill="#FFFFFF" points="110.349398 50.8573293 119.759036 56.3041237 119.759036 54.0737196 110.349398 48.6262887"></polygon>
            <polygon id="Fill-633" fill="#FFFFFF" points="110.349398 56.8291637 119.759036 62.2757732 119.759036 60.0451842 110.349398 54.5979381"></polygon>
            <polygon id="Fill-634" fill="#FFFFFF" points="110.349398 62.8006282 119.759036 68.2474227 119.759036 66.0170186 110.349398 60.5695876"></polygon>
            <polygon id="Fill-635" fill="#FFFFFF" points="110.349398 68.7724627 119.759036 74.2190722 119.759036 71.9884832 110.349398 66.5412371"></polygon>
            <polygon id="Fill-636" fill="#FFFFFF" points="110.349398 73.8910194 119.759036 79.3376289 119.759036 77.1070399 110.349398 71.6597938"></polygon>
            <polygon id="Fill-637" fill="#FFFFFF" points="110.349398 79.8624839 119.759036 85.3092784 119.759036 83.0788743 110.349398 77.6314433"></polygon>
            <g id="Group-640" transform="translate(125.746988, 33.270619)">
                <mask id="mask-76" fill="white">
                    <use xlink:href="#path-75"></use>
                </mask>
                <g id="Clip-639"></g>
                <polygon id="Fill-638" fill="#EE2649" mask="url(#mask-76)" points="-2.66130976 178.674343 143.832073 178.674343 143.832073 -2.89775219 -2.66130976 -2.89775219"></polygon>
            </g>
            <polygon id="Fill-641" fill="#EE2649" points="126.60241 127.569199 233.53012 189.386598 233.53012 157.36379 126.60241 95.5463918"></polygon>
            <polygon id="Fill-642" fill="#DC0A2E" points="126.60241 92.5923954 233.53012 154.409794 233.53012 122.387624 126.60241 60.5695876"></polygon>
            <polygon id="Fill-643" fill="#F36E44" points="184.771084 122.554218 188.192771 124.551546 188.192771 100.956737 184.771084 98.9587629"></polygon>
            <polygon id="Fill-644" fill="#F36E44" points="177.927711 119.200801 181.349398 121.139175 181.349398 100.897763 177.927711 98.9587629"></polygon>
            <polygon id="Fill-645" fill="#F36E44" points="190.759036 125.966338 194.180723 127.963918 194.180723 122.284954 190.759036 120.286082"></polygon>
            <polygon id="Fill-646" fill="#F36E44" points="196.746988 130.11515 200.168675 132.229381 200.168675 129.224373 196.746988 127.110825"></polygon>
            <polygon id="Fill-647" fill="#F36E44" points="165.951807 112.337527 169.373494 114.314433 169.373494 106.054225 165.951807 104.07732"></polygon>
            <polygon id="Fill-648" fill="#F36E44" points="171.939759 115.723855 175.361446 117.726804 175.361446 100.107972 171.939759 98.1056701"></polygon>
            <polygon id="Fill-649" fill="#F36E44" points="159.963855 108.907258 163.385542 110.902062 163.385542 95.8356544 159.963855 93.8402062"></polygon>
            <g id="Group-652" transform="translate(135.156627, 111.755155)">
                <mask id="mask-78" fill="white">
                    <use xlink:href="#path-77"></use>
                </mask>
                <g id="Clip-651"></g>
                <polygon id="Fill-650" fill="#F36E44" mask="url(#mask-78)" points="-3.00784274 20.5420477 14.7946531 20.5420477 14.7946531 -2.82032474 -3.00784274 -2.82032474"></polygon>
            </g>
            <g id="Group-655" transform="translate(125.746988, 111.755155)">
                <mask id="mask-80" fill="white">
                    <use xlink:href="#path-79"></use>
                </mask>
                <g id="Clip-654"></g>
                <polygon id="Fill-653" fill="#F36E44" mask="url(#mask-80)" points="-3.10237494 25.8941385 19.0017214 25.8941385 19.0017214 -2.81968492 -3.10237494 -2.81968492"></polygon>
            </g>
            <g id="Group-658" transform="translate(108.638554, 111.755155)">
                <mask id="mask-82" fill="white">
                    <use xlink:href="#path-81"></use>
                </mask>
                <g id="Clip-657"></g>
                <polygon id="Fill-656" fill="#DC0A2E" mask="url(#mask-82)" points="-3.07347044 36.7651394 30.4781575 36.7651394 30.4781575 -2.54032073 -3.07347044 -2.54032073"></polygon>
            </g>
            <g id="Group-661" transform="translate(108.638554, 113.461340)">
                <mask id="mask-84" fill="white">
                    <use xlink:href="#path-83"></use>
                </mask>
                <g id="Clip-660"></g>
                <polygon id="Fill-659" fill="#F36E44" mask="url(#mask-84)" points="-3.10133133 35.0763985 28.3020542 35.0763985 28.3020542 -3.08792824 -3.10133133 -3.08792824"></polygon>
            </g>
            <g id="Group-664" transform="translate(114.626506, 121.139175)">
                <mask id="mask-86" fill="white">
                    <use xlink:href="#path-85"></use>
                </mask>
                <g id="Clip-663"></g>
                <polygon id="Fill-662" fill="#FFFFFF" mask="url(#mask-86)" points="-3.25288353 18.1350464 16.3289409 18.1350464 16.3289409 -2.57783312 -3.25288353 -2.57783312"></polygon>
            </g>
            <polygon id="Fill-665" fill="#FFFFFF" points="151.409639 122.530089 211.289157 156.969072 211.289157 153.01888 151.409639 118.579897"></polygon>
            <polygon id="Fill-666" fill="#FFFFFF" points="152.26506 134.476965 194.180723 158.675258 194.180723 154.72085 152.26506 130.523196"></polygon>
            <polygon id="Fill-667" fill="#FFFFFF" points="152.26506 128.491937 224.975904 170.618557 224.975904 166.677529 152.26506 124.551546"></polygon>
            <polygon id="Fill-668" fill="#DC0A2E" points="130.879518 55.3719857 153.120482 68.2474227 153.120482 52.117705 130.879518 39.242268"></polygon>
            <polygon id="Fill-669" fill="#DC0A2E" points="167.662651 76.6993053 189.903614 89.5747423 189.903614 73.4450246 167.662651 60.5695876"></polygon>
            <polygon id="Fill-670" fill="#DC0A2E" points="204.445783 98.0263403 226.686747 110.902062 226.686747 94.7719877 204.445783 81.8969072"></polygon>
            <polygon id="Fill-671" fill="#DC0A2E" points="241.228916 118.500567 263.46988 131.376289 263.46988 115.246856 241.228916 102.371134"></polygon>
            <polygon id="Fill-672" fill="#DC0A2E" points="241.228916 188.45446 263.46988 201.329897 263.46988 185.200179 241.228916 172.324742"></polygon>
            <polygon id="Fill-673" fill="#DC0A2E" points="241.228916 160.288769 263.46988 173.177835 263.46988 143.412262 241.228916 130.523196"></polygon>
            <g id="Group-686" transform="translate(125.746988, 40.095361)" fill="#F36E44" opacity="0.5">
                <polygon id="Fill-674" points="0.261400496 16.6067147 22.4702267 29.389287 22.4702267 13.3759057 0.261400496 0.593333362"></polygon>
                <polygon id="Fill-676" points="37.0692592 37.7908543 59.2787239 50.5734266 59.2787239 34.5600453 37.0692592 21.7781095"></polygon>
                <polygon id="Fill-678" points="73.8776926 58.9755668 96.0871573 71.7581391 96.0871573 55.7447578 73.8776926 42.9621855"></polygon>
                <polygon id="Fill-680" points="110.686126 80.1597064 132.894952 92.9422787 132.894952 76.9288974 110.686126 64.1463251"></polygon>
                <polygon id="Fill-682" points="110.686126 149.639858 132.894952 162.42243 132.894952 146.409049 110.686126 133.627113"></polygon>
                <polygon id="Fill-684" points="110.686126 121.653261 132.894952 134.435834 132.894952 104.916194 110.686126 92.1336217"></polygon>
            </g>
            <g id="Group-689" transform="translate(202.734940, 81.043814)">
                <mask id="mask-88" fill="white">
                    <use xlink:href="#path-87"></use>
                </mask>
                <g id="Clip-688"></g>
                <polygon id="Fill-687" fill="#FFFFFF" mask="url(#mask-88)" points="-3.15032798 11.2483565 8.72444578 11.2483565 8.72444578 -2.79814433 -3.15032798 -2.79814433"></polygon>
            </g>
            <g id="Group-692" transform="translate(239.518072, 103.224227)">
                <mask id="mask-90" fill="white">
                    <use xlink:href="#path-89"></use>
                </mask>
                <g id="Clip-691"></g>
                <polygon id="Fill-690" fill="#FFFFFF" mask="url(#mask-90)" points="-2.71853012 10.5090367 9.15624364 10.5090367 9.15624364 -3.18630155 -2.71853012 -3.18630155"></polygon>
            </g>
            <g id="Group-695" transform="translate(249.783133, 127.110825)">
                <mask id="mask-92" fill="white">
                    <use xlink:href="#path-91"></use>
                </mask>
                <g id="Clip-694"></g>
                <polygon id="Fill-693" fill="#FFFFFF" mask="url(#mask-92)" points="-3.12763554 10.7118595 8.32303916 10.7118595 8.32303916 -2.98347874 -3.12763554 -2.98347874"></polygon>
            </g>
            <g id="Group-698" transform="translate(249.783133, 168.912371)">
                <mask id="mask-94" fill="white">
                    <use xlink:href="#path-93"></use>
                </mask>
                <g id="Clip-697"></g>
                <polygon id="Fill-696" fill="#FFFFFF" mask="url(#mask-94)" points="-3.12763554 10.8340651 8.32303916 10.8340651 8.32303916 -2.8612732 -3.12763554 -2.8612732"></polygon>
            </g>
            <g id="Group-701" transform="translate(165.951807, 60.569588)">
                <mask id="mask-96" fill="white">
                    <use xlink:href="#path-95"></use>
                </mask>
                <g id="Clip-700"></g>
                <polygon id="Fill-699" fill="#FFFFFF" mask="url(#mask-96)" points="-2.91613253 10.7860786 8.95864123 10.7860786 8.95864123 -2.90925966 -2.91613253 -2.90925966"></polygon>
            </g>
        </g>
    </g>
</svg>