<?xml version="1.0" encoding="UTF-8"?>
<svg width="434px" height="335px" viewBox="0 0 434 335" version="1.1" xmlns="http://www.w3.org/2000/svg" xmlns:xlink="http://www.w3.org/1999/xlink">
    <!-- Generator: Sketch 53.2 (72643) - https://sketchapp.com -->
    <title>figure1</title>
    <desc>Created with Sketch.</desc>
    <defs>
        <linearGradient x1="100%" y1="2.56592055%" x2="11.908303%" y2="89.5405557%" id="linearGradient-1">
            <stop stop-color="#EE2649" offset="0%"></stop>
            <stop stop-color="#F36E44" offset="100%"></stop>
        </linearGradient>
        <linearGradient x1="100%" y1="47.9867033%" x2="11.908303%" y2="51.6782632%" id="linearGradient-2">
            <stop stop-color="#EE2649" offset="0%"></stop>
            <stop stop-color="#F36E44" offset="99.8785895%"></stop>
        </linearGradient>
        <linearGradient x1="100%" y1="48.3576947%" x2="11.908303%" y2="51.3690086%" id="linearGradient-3">
            <stop stop-color="#EE2649" offset="0%"></stop>
            <stop stop-color="#F36E44" offset="100%"></stop>
        </linearGradient>
        <polygon id="path-4" points="0 0.129950562 42.9908208 0.129950562 42.9908208 40.1275761 0 40.1275761"></polygon>
        <path d="M42.9908208,4.03458895 L39.9291148,6.4429288 L23.5185795,0.611966207 C22.4058564,-0.0284316947 20.6008762,-0.0310338248 19.4873287,0.606077176 L2.97112722,6.4429288 L-2.7481429e-05,4.03458895 L-2.7481429e-05,27.7939537 L0.00258325433,27.7939537 C0.0159117474,28.2020773 0.291687888,28.6081465 0.834171297,28.9204021 L19.4722139,39.6455605 C20.5850743,40.2859584 22.3899172,40.2885605 23.5036021,39.6514495 L42.1551106,28.980525 C42.7258999,28.6540262 43.0022256,28.2228943 42.9882101,27.7939537 L42.9908208,27.7939537 L42.9908208,4.03458895 Z" id="path-6"></path>
        <polygon id="path-8" points="2.3867368e-05 0.0550555938 42.9908382 0.0550555938 42.9908382 24.7225042 2.3867368e-05 24.7225042"></polygon>
        <path d="M7.51124096,0.100488847 L0.766983608,4.00399756 C0.364328227,4.23702882 0.0379495459,4.80245108 0.0379495459,5.26694541 L0.0379495459,5.26694541 L0.0379495459,13.0456729 C0.0379495459,13.5101045 0.364328227,13.6976586 0.766983608,13.4645646 L0.766983608,13.4645646 L7.51124096,9.56111864 C7.91395928,9.32808738 8.24033796,8.76266512 8.24033796,8.29817079 L8.24033796,8.29817079 L8.2404009,0.519443286 C8.2404009,0.190439538 8.07651927,0.000376362724 7.83787138,0.000376362724 L7.83787138,0.000376362724 C7.73956758,0.000376362724 7.62867687,0.0325553756 7.51124096,0.100488847 L7.51124096,0.100488847 Z" id="path-10"></path>
        <path d="M7.51124096,0.100488847 L0.766983608,4.00399756 C0.364328227,4.23702882 0.0379495459,4.80245108 0.0379495459,5.26694541 L0.0379495459,5.26694541 L0.0379495459,13.0456729 C0.0379495459,13.5101045 0.364328227,13.6976586 0.766983608,13.4645646 L0.766983608,13.4645646 L7.51124096,9.56111864 C7.91395928,9.32808738 8.24033796,8.76266512 8.24033796,8.29817079 L8.24033796,8.29817079 L8.2404009,0.519443286 C8.2404009,0.190439538 8.07651927,0.000376362724 7.83787138,0.000376362724 L7.83787138,0.000376362724 C7.73956758,0.000376362724 7.62867687,0.0325553756 7.51124096,0.100488847 L7.51124096,0.100488847 Z" id="path-12"></path>
        <path d="M7.51124096,0.100488847 L0.766983608,4.00399756 C0.364328227,4.23702882 0.0379495459,4.80245108 0.0379495459,5.26694541 L0.0379495459,5.26694541 L0.0379495459,13.0456729 C0.0379495459,13.5101045 0.364328227,13.6976586 0.766983608,13.4645646 L0.766983608,13.4645646 L7.51124096,9.56111864 C7.91395928,9.32808738 8.24033796,8.76266512 8.24033796,8.29817079 L8.24033796,8.29817079 L8.2404009,0.519443286 C8.2404009,0.190439538 8.07651927,0.000376362724 7.83787138,0.000376362724 L7.83787138,0.000376362724 C7.73956758,0.000376362724 7.62867687,0.0325553756 7.51124096,0.100488847 L7.51124096,0.100488847 Z" id="path-14"></path>
        <path d="M7.51124096,0.100488847 L0.766983608,4.00399756 C0.364328227,4.23702882 0.0379495459,4.80245108 0.0379495459,5.26694541 L0.0379495459,5.26694541 L0.0379495459,13.0456729 C0.0379495459,13.5101045 0.364328227,13.6976586 0.766983608,13.4645646 L0.766983608,13.4645646 L7.51124096,9.56111864 C7.91395928,9.32808738 8.24033796,8.76266512 8.24033796,8.29817079 L8.24033796,8.29817079 L8.2404009,0.519443286 C8.2404009,0.190439538 8.07651927,0.000376362724 7.83787138,0.000376362724 L7.83787138,0.000376362724 C7.73956758,0.000376362724 7.62867687,0.0325553756 7.51124096,0.100488847 L7.51124096,0.100488847 Z" id="path-16"></path>
        <path d="M7.20449692,0.206175113 L0.363884697,4.12693428 C-0.0445547119,4.36107396 -0.0448093103,4.74158272 0.363375501,4.9768664 L0.363375501,4.9768664 L7.19902305,8.91764566 C7.60714421,9.15286579 8.26909993,9.15388268 8.67753934,8.91980656 L8.67753934,8.91980656 L15.5182152,4.99892028 C15.926591,4.76484415 15.9268456,4.3843354 15.5187244,4.14905171 L15.5187244,4.14905171 L8.68301321,0.208272456 C8.47831613,0.090249279 8.20965122,0.0312059127 7.9412409,0.0312059127 L7.9412409,0.0312059127 C7.67454913,0.0312059127 7.4080483,0.0894866091 7.20449692,0.206175113 L7.20449692,0.206175113 Z" id="path-18"></path>
        <linearGradient x1="50%" y1="16.5346545%" x2="50%" y2="95.1613073%" id="linearGradient-20">
            <stop stop-color="#EE2649" offset="0%"></stop>
            <stop stop-color="#F36E44" offset="100%"></stop>
        </linearGradient>
        <filter x="-18.4%" y="-32.0%" width="136.7%" height="164.0%" filterUnits="objectBoundingBox" id="filter-21">
            <feGaussianBlur stdDeviation="1" in="SourceGraphic"></feGaussianBlur>
        </filter>
        <polygon id="path-22" points="0 0.0493812136 16.3365119 0.0493812136 16.3365119 15.2484789 0 15.2484789"></polygon>
        <path d="M16.3365119,1.5331438 L15.1730636,2.44831294 L8.9370602,0.232547159 C8.51422544,-0.010804044 7.82833294,-0.0117928534 7.40518489,0.230309327 L1.12902834,2.44831294 L-1.04434962e-05,1.5331438 L-1.04434962e-05,10.5617024 L0.000981636092,10.5617024 C0.00604646346,10.7167894 0.110841397,10.8710957 0.316985092,10.9897528 L7.39944127,15.065313 C7.82232825,15.3086642 8.50816853,15.309653 8.9313688,15.0675508 L16.018942,11.0125995 C16.2358419,10.8885299 16.3408457,10.7246998 16.3355198,10.5617024 L16.3365119,10.5617024 L16.3365119,1.5331438 Z" id="path-24"></path>
        <polygon id="path-26" points="9.07008024e-06 0.0209211256 16.3365185 0.0209211256 16.3365185 9.39455158 9.07008024e-06 9.39455158"></polygon>
        <polygon id="path-28" points="0 0.129950562 42.9908208 0.129950562 42.9908208 40.1275761 0 40.1275761"></polygon>
        <path d="M42.9908208,4.03458895 L39.9291148,6.4429288 L23.5185795,0.611966207 C22.4058564,-0.0284316947 20.6008762,-0.0310338248 19.4873287,0.606077176 L2.97112722,6.4429288 L-2.7481429e-05,4.03458895 L-2.7481429e-05,27.7939537 C0.0159117474,28.2020773 0.291687888,28.6081465 0.834171297,28.9204021 L19.4722139,39.6455605 C20.5850743,40.2859584 22.3899172,40.2885605 23.5036021,39.6514495 L42.1551106,28.980525 C42.7258999,28.6540262 43.0022256,28.2228943 42.9882101,27.7939537 L42.9908208,27.7939537 L42.9908208,4.03458895 Z" id="path-30"></path>
        <polygon id="path-32" points="2.3867368e-05 0.0550555938 42.9908382 0.0550555938 42.9908382 24.7225042 2.3867368e-05 24.7225042"></polygon>
        <path d="M7.51124096,0.100488847 L0.766983608,4.00399756 C0.364328227,4.23702882 0.0379495459,4.80245108 0.0379495459,5.26694541 L0.0379495459,5.26694541 L0.0379495459,13.0456729 C0.0379495459,13.5101045 0.364328227,13.6976586 0.766983608,13.4645646 L0.766983608,13.4645646 L7.51124096,9.56111864 C7.91395928,9.32808738 8.24033796,8.76266512 8.24033796,8.29817079 L8.24033796,8.29817079 L8.2404009,0.519443286 C8.2404009,0.190439538 8.07651927,0.000376362724 7.83787138,0.000376362724 L7.83787138,0.000376362724 C7.73956758,0.000376362724 7.62867687,0.0325553756 7.51124096,0.100488847 L7.51124096,0.100488847 Z" id="path-34"></path>
        <path d="M7.51124096,0.100488847 L0.766983608,4.00399756 C0.364328227,4.23702882 0.0379495459,4.80245108 0.0379495459,5.26694541 L0.0379495459,5.26694541 L0.0379495459,13.0456729 C0.0379495459,13.5101045 0.364328227,13.6976586 0.766983608,13.4645646 L0.766983608,13.4645646 L7.51124096,9.56111864 C7.91395928,9.32808738 8.24033796,8.76266512 8.24033796,8.29817079 L8.24033796,8.29817079 L8.2404009,0.519443286 C8.2404009,0.190439538 8.07651927,0.000376362724 7.83787138,0.000376362724 L7.83787138,0.000376362724 C7.73956758,0.000376362724 7.62867687,0.0325553756 7.51124096,0.100488847 L7.51124096,0.100488847 Z" id="path-36"></path>
        <path d="M7.51124096,0.100488847 L0.766983608,4.00399756 C0.364328227,4.23702882 0.0379495459,4.80245108 0.0379495459,5.26694541 L0.0379495459,5.26694541 L0.0379495459,13.0456729 C0.0379495459,13.5101045 0.364328227,13.6976586 0.766983608,13.4645646 L0.766983608,13.4645646 L7.51124096,9.56111864 C7.91395928,9.32808738 8.24033796,8.76266512 8.24033796,8.29817079 L8.24033796,8.29817079 L8.2404009,0.519443286 C8.2404009,0.190439538 8.07651927,0.000376362724 7.83787138,0.000376362724 L7.83787138,0.000376362724 C7.73956758,0.000376362724 7.62867687,0.0325553756 7.51124096,0.100488847 L7.51124096,0.100488847 Z" id="path-38"></path>
        <path d="M7.51124096,0.100488847 L0.766983608,4.00399756 C0.364328227,4.23702882 0.0379495459,4.80245108 0.0379495459,5.26694541 L0.0379495459,5.26694541 L0.0379495459,13.0456729 C0.0379495459,13.5101045 0.364328227,13.6976586 0.766983608,13.4645646 L0.766983608,13.4645646 L7.51124096,9.56111864 C7.91395928,9.32808738 8.24033796,8.76266512 8.24033796,8.29817079 L8.24033796,8.29817079 L8.2404009,0.519443286 C8.2404009,0.190439538 8.07651927,0.000376362724 7.83787138,0.000376362724 L7.83787138,0.000376362724 C7.73956758,0.000376362724 7.62867687,0.0325553756 7.51124096,0.100488847 L7.51124096,0.100488847 Z" id="path-40"></path>
        <path d="M7.20449692,0.206175113 L0.363884697,4.12693428 C-0.0445547119,4.36107396 -0.0448093103,4.74158272 0.363375501,4.9768664 L0.363375501,4.9768664 L7.19902305,8.91764566 C7.60714421,9.15286579 8.26909993,9.15388268 8.67753934,8.91980656 L8.67753934,8.91980656 L15.5182152,4.99892028 C15.926591,4.76484415 15.9268456,4.3843354 15.5187244,4.14905171 L15.5187244,4.14905171 L8.68301321,0.208272456 C8.47831613,0.090249279 8.20965122,0.0312059127 7.9412409,0.0312059127 L7.9412409,0.0312059127 C7.67454913,0.0312059127 7.4080483,0.0894866091 7.20449692,0.206175113 L7.20449692,0.206175113 Z" id="path-42"></path>
        <filter x="-18.4%" y="-32.0%" width="136.7%" height="164.0%" filterUnits="objectBoundingBox" id="filter-44">
            <feGaussianBlur stdDeviation="1" in="SourceGraphic"></feGaussianBlur>
        </filter>
        <polygon id="path-45" points="0 0.0493812136 16.3365119 0.0493812136 16.3365119 15.2484789 0 15.2484789"></polygon>
        <path d="M16.3365119,1.5331438 L15.1730636,2.44831294 L8.9370602,0.232547159 C8.51422544,-0.010804044 7.82833294,-0.0117928534 7.40518489,0.230309327 L1.12902834,2.44831294 L-1.04434962e-05,1.5331438 L-1.04434962e-05,10.5617024 L0.000981636092,10.5617024 C0.00604646346,10.7167894 0.110841397,10.8710957 0.316985092,10.9897528 L7.39944127,15.065313 C7.82232825,15.3086642 8.50816853,15.309653 8.9313688,15.0675508 L16.018942,11.0125995 C16.2358419,10.8885299 16.3408457,10.7246998 16.3355198,10.5617024 L16.3365119,10.5617024 L16.3365119,1.5331438 Z" id="path-47"></path>
        <polygon id="path-49" points="9.07008024e-06 0.0209211256 16.3365185 0.0209211256 16.3365185 9.39455158 9.07008024e-06 9.39455158"></polygon>
        <linearGradient x1="100%" y1="31.4098203%" x2="11.908303%" y2="65.4965806%" id="linearGradient-51">
            <stop stop-color="#EE2649" offset="0%"></stop>
            <stop stop-color="#F36E44" offset="100%"></stop>
        </linearGradient>
        <linearGradient x1="100%" y1="31.4098203%" x2="11.908303%" y2="65.4965806%" id="linearGradient-52">
            <stop stop-color="#EE2649" offset="0%"></stop>
            <stop stop-color="#F36E44" offset="100%"></stop>
        </linearGradient>
        <linearGradient x1="100%" y1="32.4773063%" x2="11.908303%" y2="64.6067353%" id="linearGradient-53">
            <stop stop-color="#EE2649" offset="0%"></stop>
            <stop stop-color="#F36E44" offset="100%"></stop>
        </linearGradient>
        <linearGradient x1="100%" y1="32.4773063%" x2="11.908303%" y2="64.6067353%" id="linearGradient-54">
            <stop stop-color="#EE2649" offset="0%"></stop>
            <stop stop-color="#F36E44" offset="100%"></stop>
        </linearGradient>
        <polygon id="path-55" points="0 0.129950562 42.9908208 0.129950562 42.9908208 40.1275761 0 40.1275761"></polygon>
        <path d="M42.9908208,4.03458895 L39.9291148,6.4429288 L23.5185795,0.611966207 C22.4058564,-0.0284316947 20.6008762,-0.0310338248 19.4873287,0.606077176 L2.97112722,6.4429288 L-2.7481429e-05,4.03458895 L-2.7481429e-05,27.7939537 L0.00258325433,27.7939537 C0.0159117474,28.2020773 0.291687888,28.6081465 0.834171297,28.9204021 L19.4722139,39.6455605 C20.5850743,40.2859584 22.3899172,40.2885605 23.5036021,39.6514495 L42.1551106,28.980525 C42.7258999,28.6540262 43.0022256,28.2228943 42.9882101,27.7939537 L42.9908208,27.7939537 L42.9908208,4.03458895 Z" id="path-57"></path>
        <polygon id="path-59" points="2.3867368e-05 0.0550555938 42.9908382 0.0550555938 42.9908382 24.7225042 2.3867368e-05 24.7225042"></polygon>
        <path d="M7.51124096,0.100488847 L0.766983608,4.00399756 C0.364328227,4.23702882 0.0379495459,4.80245108 0.0379495459,5.26694541 L0.0379495459,5.26694541 L0.0379495459,13.0456729 C0.0379495459,13.5101045 0.364328227,13.6976586 0.766983608,13.4645646 L0.766983608,13.4645646 L7.51124096,9.56111864 C7.91395928,9.32808738 8.24033796,8.76266512 8.24033796,8.29817079 L8.24033796,8.29817079 L8.2404009,0.519443286 C8.2404009,0.190439538 8.07651927,0.000376362724 7.83787138,0.000376362724 L7.83787138,0.000376362724 C7.73956758,0.000376362724 7.62867687,0.0325553756 7.51124096,0.100488847 L7.51124096,0.100488847 Z" id="path-61"></path>
        <path d="M7.51124096,0.100488847 L0.766983608,4.00399756 C0.364328227,4.23702882 0.0379495459,4.80245108 0.0379495459,5.26694541 L0.0379495459,5.26694541 L0.0379495459,13.0456729 C0.0379495459,13.5101045 0.364328227,13.6976586 0.766983608,13.4645646 L0.766983608,13.4645646 L7.51124096,9.56111864 C7.91395928,9.32808738 8.24033796,8.76266512 8.24033796,8.29817079 L8.24033796,8.29817079 L8.2404009,0.519443286 C8.2404009,0.190439538 8.07651927,0.000376362724 7.83787138,0.000376362724 L7.83787138,0.000376362724 C7.73956758,0.000376362724 7.62867687,0.0325553756 7.51124096,0.100488847 L7.51124096,0.100488847 Z" id="path-63"></path>
        <path d="M7.51124096,0.100488847 L0.766983608,4.00399756 C0.364328227,4.23702882 0.0379495459,4.80245108 0.0379495459,5.26694541 L0.0379495459,5.26694541 L0.0379495459,13.0456729 C0.0379495459,13.5101045 0.364328227,13.6976586 0.766983608,13.4645646 L0.766983608,13.4645646 L7.51124096,9.56111864 C7.91395928,9.32808738 8.24033796,8.76266512 8.24033796,8.29817079 L8.24033796,8.29817079 L8.2404009,0.519443286 C8.2404009,0.190439538 8.07651927,0.000376362724 7.83787138,0.000376362724 L7.83787138,0.000376362724 C7.73956758,0.000376362724 7.62867687,0.0325553756 7.51124096,0.100488847 L7.51124096,0.100488847 Z" id="path-65"></path>
        <path d="M7.51124096,0.100488847 L0.766983608,4.00399756 C0.364328227,4.23702882 0.0379495459,4.80245108 0.0379495459,5.26694541 L0.0379495459,5.26694541 L0.0379495459,13.0456729 C0.0379495459,13.5101045 0.364328227,13.6976586 0.766983608,13.4645646 L0.766983608,13.4645646 L7.51124096,9.56111864 C7.91395928,9.32808738 8.24033796,8.76266512 8.24033796,8.29817079 L8.24033796,8.29817079 L8.2404009,0.519443286 C8.2404009,0.190439538 8.07651927,0.000376362724 7.83787138,0.000376362724 L7.83787138,0.000376362724 C7.73956758,0.000376362724 7.62867687,0.0325553756 7.51124096,0.100488847 L7.51124096,0.100488847 Z" id="path-67"></path>
        <path d="M7.20449692,0.206175113 L0.363884697,4.12693428 C-0.0445547119,4.36107396 -0.0448093103,4.74158272 0.363375501,4.9768664 L0.363375501,4.9768664 L7.19902305,8.91764566 C7.60714421,9.15286579 8.26909993,9.15388268 8.67753934,8.91980656 L8.67753934,8.91980656 L15.5182152,4.99892028 C15.926591,4.76484415 15.9268456,4.3843354 15.5187244,4.14905171 L15.5187244,4.14905171 L8.68301321,0.208272456 C8.47831613,0.090249279 8.20965122,0.0312059127 7.9412409,0.0312059127 L7.9412409,0.0312059127 C7.67454913,0.0312059127 7.4080483,0.0894866091 7.20449692,0.206175113 L7.20449692,0.206175113 Z" id="path-69"></path>
        <linearGradient x1="50%" y1="16.5346545%" x2="50%" y2="95.1613073%" id="linearGradient-71">
            <stop stop-color="#EE2649" offset="0%"></stop>
            <stop stop-color="#DC0A2E" offset="100%"></stop>
        </linearGradient>
        <filter x="-18.4%" y="-32.0%" width="136.7%" height="164.0%" filterUnits="objectBoundingBox" id="filter-72">
            <feGaussianBlur stdDeviation="1" in="SourceGraphic"></feGaussianBlur>
        </filter>
        <polygon id="path-73" points="0 0.0493812136 16.3365119 0.0493812136 16.3365119 15.2484789 0 15.2484789"></polygon>
        <path d="M16.3365119,1.5331438 L15.1730636,2.44831294 L8.9370602,0.232547159 C8.51422544,-0.010804044 7.82833294,-0.0117928534 7.40518489,0.230309327 L1.12902834,2.44831294 L-1.04434962e-05,1.5331438 L-1.04434962e-05,10.5617024 L0.000981636092,10.5617024 C0.00604646346,10.7167894 0.110841397,10.8710957 0.316985092,10.9897528 L7.39944127,15.065313 C7.82232825,15.3086642 8.50816853,15.309653 8.9313688,15.0675508 L16.018942,11.0125995 C16.2358419,10.8885299 16.3408457,10.7246998 16.3355198,10.5617024 L16.3365119,10.5617024 L16.3365119,1.5331438 Z" id="path-75"></path>
        <polygon id="path-77" points="9.07008024e-06 0.0209211256 16.3365185 0.0209211256 16.3365185 9.39455158 9.07008024e-06 9.39455158"></polygon>
        <filter x="-18.4%" y="-32.0%" width="136.7%" height="164.0%" filterUnits="objectBoundingBox" id="filter-79">
            <feGaussianBlur stdDeviation="1" in="SourceGraphic"></feGaussianBlur>
        </filter>
        <polygon id="path-80" points="0 0.0493812136 16.3365119 0.0493812136 16.3365119 15.2484789 0 15.2484789"></polygon>
        <path d="M16.3365119,1.5331438 L15.1730636,2.44831294 L8.9370602,0.232547159 C8.51422544,-0.010804044 7.82833294,-0.0117928534 7.40518489,0.230309327 L1.12902834,2.44831294 L-1.04434962e-05,1.5331438 L-1.04434962e-05,10.5617024 L0.000981636092,10.5617024 C0.00604646346,10.7167894 0.110841397,10.8710957 0.316985092,10.9897528 L7.39944127,15.065313 C7.82232825,15.3086642 8.50816853,15.309653 8.9313688,15.0675508 L16.018942,11.0125995 C16.2358419,10.8885299 16.3408457,10.7246998 16.3355198,10.5617024 L16.3365119,10.5617024 L16.3365119,1.5331438 Z" id="path-82"></path>
        <polygon id="path-84" points="9.07008024e-06 0.0209211256 16.3365185 0.0209211256 16.3365185 9.39455158 9.07008024e-06 9.39455158"></polygon>
        <polygon id="path-86" points="0 0.0493812136 16.3365119 0.0493812136 16.3365119 15.2484789 0 15.2484789"></polygon>
        <path d="M16.3365119,1.5331438 L15.1730636,2.44831294 L8.9370602,0.232547159 C8.51422544,-0.010804044 7.82833294,-0.0117928534 7.40518489,0.230309327 L1.12902834,2.44831294 L-1.04434962e-05,1.5331438 L-1.04434962e-05,10.5617024 L0.000981636092,10.5617024 C0.00604646346,10.7167894 0.110841397,10.8710957 0.316985092,10.9897528 L7.39944127,15.065313 C7.82232825,15.3086642 8.50816853,15.309653 8.9313688,15.0675508 L16.018942,11.0125995 C16.2358419,10.8885299 16.3408457,10.7246998 16.3355198,10.5617024 L16.3365119,10.5617024 L16.3365119,1.5331438 Z" id="path-88"></path>
        <polygon id="path-90" points="9.07008024e-06 0.0209211256 16.3365185 0.0209211256 16.3365185 9.39455158 9.07008024e-06 9.39455158"></polygon>
        <path d="M2.73770883,0.0783465431 L0.138276185,1.56823503 C-0.0169307905,1.65720811 -0.0170275379,1.80180143 0.13808269,1.89120923 L0.13808269,1.89120923 L2.73562876,3.38870535 C2.8907148,3.478089 3.14225797,3.47847542 3.29746495,3.38952649 L3.29746495,3.38952649 L5.89692178,1.8995897 C6.05210457,1.81064078 6.05220132,1.66604745 5.89711528,1.57663965 L5.89711528,1.57663965 L3.29954502,0.0791435332 C3.22176013,0.034294726 3.11966746,0.0118582468 3.01767154,0.0118582468 L3.01767154,0.0118582468 C2.91632867,0.0118582468 2.81505835,0.0340049114 2.73770883,0.0783465431 L2.73770883,0.0783465431 Z" id="path-92"></path>
        <linearGradient x1="50%" y1="16.5346545%" x2="50%" y2="95.1613073%" id="linearGradient-94">
            <stop stop-color="#EE2649" offset="0%"></stop>
            <stop stop-color="#F36E44" offset="100%"></stop>
        </linearGradient>
        <filter x="-48.3%" y="-84.2%" width="196.7%" height="268.4%" filterUnits="objectBoundingBox" id="filter-95">
            <feGaussianBlur stdDeviation="1" in="SourceGraphic"></feGaussianBlur>
        </filter>
        <polygon id="path-96" points="0 0.0187648612 6.20787453 0.0187648612 6.20787453 5.79442199 0 5.79442199"></polygon>
        <path d="M6.20787453,0.582594645 L5.76576418,0.930358918 L3.39608288,0.0883679203 C3.23540567,-0.00410553672 2.97476652,-0.00448128429 2.81397026,0.0875175442 L0.429030769,0.930358918 L-3.96907176e-06,0.582594645 L-3.96907176e-06,4.01344692 C0.00229765557,4.07237996 0.0421197302,4.13101636 0.120454334,4.17610607 L2.81178768,5.72481893 C2.97248473,5.81729239 3.23310404,5.81766814 3.39392014,5.72566931 L6.08719797,4.18478781 C6.16961994,4.13764138 6.20952138,4.07538594 6.20749754,4.01344692 L6.20787453,0.582594645 Z" id="path-98"></path>
        <polygon id="path-100" points="3.44644794e-06 0.00795002774 6.20787703 0.00795002774 6.20787703 3.5699296 3.44644794e-06 3.5699296"></polygon>
        <polygon id="path-102" points="0 0.129950562 42.9908208 0.129950562 42.9908208 40.1275761 0 40.1275761"></polygon>
        <path d="M42.9908208,4.03458895 L39.9291148,6.4429288 L23.5185795,0.611966207 C22.4058564,-0.0284316947 20.6008762,-0.0310338248 19.4873287,0.606077176 L2.97112722,6.4429288 L-2.7481429e-05,4.03458895 L-2.7481429e-05,27.7939537 L0.00258325433,27.7939537 C0.0159117474,28.2020773 0.291687888,28.6081465 0.834171297,28.9204021 L19.4722139,39.6455605 C20.5850743,40.2859584 22.3899172,40.2885605 23.5036021,39.6514495 L42.1551106,28.980525 C42.7258999,28.6540262 43.0022256,28.2228943 42.9882101,27.7939537 L42.9908208,27.7939537 L42.9908208,4.03458895 Z" id="path-104"></path>
        <polygon id="path-106" points="2.3867368e-05 0.0550555938 42.9908382 0.0550555938 42.9908382 24.7225042 2.3867368e-05 24.7225042"></polygon>
        <path d="M7.51124096,0.100488847 L0.766983608,4.00399756 C0.364328227,4.23702882 0.0379495459,4.80245108 0.0379495459,5.26694541 L0.0379495459,5.26694541 L0.0379495459,13.0456729 C0.0379495459,13.5101045 0.364328227,13.6976586 0.766983608,13.4645646 L0.766983608,13.4645646 L7.51124096,9.56111864 C7.91395928,9.32808738 8.24033796,8.76266512 8.24033796,8.29817079 L8.24033796,8.29817079 L8.2404009,0.519443286 C8.2404009,0.190439538 8.07651927,0.000376362724 7.83787138,0.000376362724 L7.83787138,0.000376362724 C7.73956758,0.000376362724 7.62867687,0.0325553756 7.51124096,0.100488847 L7.51124096,0.100488847 Z" id="path-108"></path>
        <path d="M7.51124096,0.100488847 L0.766983608,4.00399756 C0.364328227,4.23702882 0.0379495459,4.80245108 0.0379495459,5.26694541 L0.0379495459,5.26694541 L0.0379495459,13.0456729 C0.0379495459,13.5101045 0.364328227,13.6976586 0.766983608,13.4645646 L0.766983608,13.4645646 L7.51124096,9.56111864 C7.91395928,9.32808738 8.24033796,8.76266512 8.24033796,8.29817079 L8.24033796,8.29817079 L8.2404009,0.519443286 C8.2404009,0.190439538 8.07651927,0.000376362724 7.83787138,0.000376362724 L7.83787138,0.000376362724 C7.73956758,0.000376362724 7.62867687,0.0325553756 7.51124096,0.100488847 L7.51124096,0.100488847 Z" id="path-110"></path>
        <path d="M7.51124096,0.100488847 L0.766983608,4.00399756 C0.364328227,4.23702882 0.0379495459,4.80245108 0.0379495459,5.26694541 L0.0379495459,5.26694541 L0.0379495459,13.0456729 C0.0379495459,13.5101045 0.364328227,13.6976586 0.766983608,13.4645646 L0.766983608,13.4645646 L7.51124096,9.56111864 C7.91395928,9.32808738 8.24033796,8.76266512 8.24033796,8.29817079 L8.24033796,8.29817079 L8.2404009,0.519443286 C8.2404009,0.190439538 8.07651927,0.000376362724 7.83787138,0.000376362724 L7.83787138,0.000376362724 C7.73956758,0.000376362724 7.62867687,0.0325553756 7.51124096,0.100488847 L7.51124096,0.100488847 Z" id="path-112"></path>
        <path d="M7.51124096,0.100488847 L0.766983608,4.00399756 C0.364328227,4.23702882 0.0379495459,4.80245108 0.0379495459,5.26694541 L0.0379495459,5.26694541 L0.0379495459,13.0456729 C0.0379495459,13.5101045 0.364328227,13.6976586 0.766983608,13.4645646 L0.766983608,13.4645646 L7.51124096,9.56111864 C7.91395928,9.32808738 8.24033796,8.76266512 8.24033796,8.29817079 L8.24033796,8.29817079 L8.2404009,0.519443286 C8.2404009,0.190439538 8.07651927,0.000376362724 7.83787138,0.000376362724 L7.83787138,0.000376362724 C7.73956758,0.000376362724 7.62867687,0.0325553756 7.51124096,0.100488847 L7.51124096,0.100488847 Z" id="path-114"></path>
        <path d="M7.20449692,0.206175113 L0.363884697,4.12693428 C-0.0445547119,4.36107396 -0.0448093103,4.74158272 0.363375501,4.9768664 L0.363375501,4.9768664 L7.19902305,8.91764566 C7.60714421,9.15286579 8.26909993,9.15388268 8.67753934,8.91980656 L8.67753934,8.91980656 L15.5182152,4.99892028 C15.926591,4.76484415 15.9268456,4.3843354 15.5187244,4.14905171 L15.5187244,4.14905171 L8.68301321,0.208272456 C8.47831613,0.090249279 8.20965122,0.0312059127 7.9412409,0.0312059127 L7.9412409,0.0312059127 C7.67454913,0.0312059127 7.4080483,0.0894866091 7.20449692,0.206175113 L7.20449692,0.206175113 Z" id="path-116"></path>
        <filter x="-18.4%" y="-32.0%" width="136.7%" height="164.0%" filterUnits="objectBoundingBox" id="filter-118">
            <feGaussianBlur stdDeviation="1" in="SourceGraphic"></feGaussianBlur>
        </filter>
        <polygon id="path-119" points="0 0.0493812136 16.3365119 0.0493812136 16.3365119 15.2484789 0 15.2484789"></polygon>
        <path d="M16.3365119,1.5331438 L15.1730636,2.44831294 L8.9370602,0.232547159 C8.51422544,-0.010804044 7.82833294,-0.0117928534 7.40518489,0.230309327 L1.12902834,2.44831294 L-1.04434962e-05,1.5331438 L-1.04434962e-05,10.5617024 L0.000981636092,10.5617024 C0.00604646346,10.7167894 0.110841397,10.8710957 0.316985092,10.9897528 L7.39944127,15.065313 C7.82232825,15.3086642 8.50816853,15.309653 8.9313688,15.0675508 L16.018942,11.0125995 C16.2358419,10.8885299 16.3408457,10.7246998 16.3355198,10.5617024 L16.3365119,10.5617024 L16.3365119,1.5331438 Z" id="path-121"></path>
        <polygon id="path-123" points="9.07008024e-06 0.0209211256 16.3365185 0.0209211256 16.3365185 9.39455158 9.07008024e-06 9.39455158"></polygon>
        <polygon id="path-125" points="0 0.129950562 42.9908208 0.129950562 42.9908208 40.1275761 0 40.1275761"></polygon>
        <path d="M42.9908208,4.03458895 L39.9291148,6.4429288 L23.5185795,0.611966207 C22.4058564,-0.0284316947 20.6008762,-0.0310338248 19.4873287,0.606077176 L2.97112722,6.4429288 L-2.7481429e-05,4.03458895 L-2.7481429e-05,27.7939537 L0.00258325433,27.7939537 C0.0159117474,28.2020773 0.291687888,28.6081465 0.834171297,28.9204021 L19.4722139,39.6455605 C20.5850743,40.2859584 22.3899172,40.2885605 23.5036021,39.6514495 L42.1551106,28.980525 C42.7258999,28.6540262 43.0022256,28.2228943 42.9882101,27.7939537 L42.9908208,27.7939537 L42.9908208,4.03458895 Z" id="path-127"></path>
        <polygon id="path-129" points="2.3867368e-05 0.0550555938 42.9908382 0.0550555938 42.9908382 24.7225042 2.3867368e-05 24.7225042"></polygon>
        <path d="M7.51124096,0.100488847 L0.766983608,4.00399756 C0.364328227,4.23702882 0.0379495459,4.80245108 0.0379495459,5.26694541 L0.0379495459,5.26694541 L0.0379495459,13.0456729 C0.0379495459,13.5101045 0.364328227,13.6976586 0.766983608,13.4645646 L0.766983608,13.4645646 L7.51124096,9.56111864 C7.91395928,9.32808738 8.24033796,8.76266512 8.24033796,8.29817079 L8.24033796,8.29817079 L8.2404009,0.519443286 C8.2404009,0.190439538 8.07651927,0.000376362724 7.83787138,0.000376362724 L7.83787138,0.000376362724 C7.73956758,0.000376362724 7.62867687,0.0325553756 7.51124096,0.100488847 L7.51124096,0.100488847 Z" id="path-131"></path>
        <path d="M7.51124096,0.100488847 L0.766983608,4.00399756 C0.364328227,4.23702882 0.0379495459,4.80245108 0.0379495459,5.26694541 L0.0379495459,5.26694541 L0.0379495459,13.0456729 C0.0379495459,13.5101045 0.364328227,13.6976586 0.766983608,13.4645646 L0.766983608,13.4645646 L7.51124096,9.56111864 C7.91395928,9.32808738 8.24033796,8.76266512 8.24033796,8.29817079 L8.24033796,8.29817079 L8.2404009,0.519443286 C8.2404009,0.190439538 8.07651927,0.000376362724 7.83787138,0.000376362724 L7.83787138,0.000376362724 C7.73956758,0.000376362724 7.62867687,0.0325553756 7.51124096,0.100488847 L7.51124096,0.100488847 Z" id="path-133"></path>
        <path d="M7.51124096,0.100488847 L0.766983608,4.00399756 C0.364328227,4.23702882 0.0379495459,4.80245108 0.0379495459,5.26694541 L0.0379495459,5.26694541 L0.0379495459,13.0456729 C0.0379495459,13.5101045 0.364328227,13.6976586 0.766983608,13.4645646 L0.766983608,13.4645646 L7.51124096,9.56111864 C7.91395928,9.32808738 8.24033796,8.76266512 8.24033796,8.29817079 L8.24033796,8.29817079 L8.2404009,0.519443286 C8.2404009,0.190439538 8.07651927,0.000376362724 7.83787138,0.000376362724 L7.83787138,0.000376362724 C7.73956758,0.000376362724 7.62867687,0.0325553756 7.51124096,0.100488847 L7.51124096,0.100488847 Z" id="path-135"></path>
        <path d="M7.51124096,0.100488847 L0.766983608,4.00399756 C0.364328227,4.23702882 0.0379495459,4.80245108 0.0379495459,5.26694541 L0.0379495459,5.26694541 L0.0379495459,13.0456729 C0.0379495459,13.5101045 0.364328227,13.6976586 0.766983608,13.4645646 L0.766983608,13.4645646 L7.51124096,9.56111864 C7.91395928,9.32808738 8.24033796,8.76266512 8.24033796,8.29817079 L8.24033796,8.29817079 L8.2404009,0.519443286 C8.2404009,0.190439538 8.07651927,0.000376362724 7.83787138,0.000376362724 L7.83787138,0.000376362724 C7.73956758,0.000376362724 7.62867687,0.0325553756 7.51124096,0.100488847 L7.51124096,0.100488847 Z" id="path-137"></path>
        <path d="M7.20449692,0.206175113 L0.363884697,4.12693428 C-0.0445547119,4.36107396 -0.0448093103,4.74158272 0.363375501,4.9768664 L0.363375501,4.9768664 L7.19902305,8.91764566 C7.60714421,9.15286579 8.26909993,9.15388268 8.67753934,8.91980656 L8.67753934,8.91980656 L15.5182152,4.99892028 C15.926591,4.76484415 15.9268456,4.3843354 15.5187244,4.14905171 L15.5187244,4.14905171 L8.68301321,0.208272456 C8.47831613,0.090249279 8.20965122,0.0312059127 7.9412409,0.0312059127 L7.9412409,0.0312059127 C7.67454913,0.0312059127 7.4080483,0.0894866091 7.20449692,0.206175113 L7.20449692,0.206175113 Z" id="path-139"></path>
        <filter x="-18.4%" y="-32.0%" width="136.7%" height="164.0%" filterUnits="objectBoundingBox" id="filter-141">
            <feGaussianBlur stdDeviation="1" in="SourceGraphic"></feGaussianBlur>
        </filter>
        <polygon id="path-142" points="0 0.0493812136 16.3365119 0.0493812136 16.3365119 15.2484789 0 15.2484789"></polygon>
        <path d="M16.3365119,1.5331438 L15.1730636,2.44831294 L8.9370602,0.232547159 C8.51422544,-0.010804044 7.82833294,-0.0117928534 7.40518489,0.230309327 L1.12902834,2.44831294 L-1.04434962e-05,1.5331438 L-1.04434962e-05,10.5617024 L0.000981636092,10.5617024 C0.00604646346,10.7167894 0.110841397,10.8710957 0.316985092,10.9897528 L7.39944127,15.065313 C7.82232825,15.3086642 8.50816853,15.309653 8.9313688,15.0675508 L16.018942,11.0125995 C16.2358419,10.8885299 16.3408457,10.7246998 16.3355198,10.5617024 L16.3365119,10.5617024 L16.3365119,1.5331438 Z" id="path-144"></path>
        <polygon id="path-146" points="9.07008024e-06 0.0209211256 16.3365185 0.0209211256 16.3365185 9.39455158 9.07008024e-06 9.39455158"></polygon>
        <linearGradient x1="100%" y1="43.7507687%" x2="11.908303%" y2="55.2092943%" id="linearGradient-148">
            <stop stop-color="#EE2649" offset="0%"></stop>
            <stop stop-color="#F36E44" offset="100%"></stop>
        </linearGradient>
        <linearGradient x1="50.0727441%" y1="-4.65755143%" x2="49.9445811%" y2="95.5619669%" id="linearGradient-149">
            <stop stop-color="#EE2649" offset="0%"></stop>
            <stop stop-color="#F36E44" offset="100%"></stop>
        </linearGradient>
        <linearGradient x1="52.0059052%" y1="-4.65755143%" x2="48.4718333%" y2="95.5619669%" id="linearGradient-150">
            <stop stop-color="#EE2649" offset="0%"></stop>
            <stop stop-color="#F36E44" offset="100%"></stop>
        </linearGradient>
        <linearGradient x1="77.0554868%" y1="-4.65755143%" x2="29.3882119%" y2="95.5619669%" id="linearGradient-151">
            <stop stop-color="#EE2649" offset="0%"></stop>
            <stop stop-color="#F36E44" offset="100%"></stop>
        </linearGradient>
        <linearGradient x1="100%" y1="43.4098236%" x2="11.908303%" y2="55.4935025%" id="linearGradient-152">
            <stop stop-color="#EE2649" offset="0%"></stop>
            <stop stop-color="#F36E44" offset="100%"></stop>
        </linearGradient>
        <linearGradient x1="100%" y1="41.5335854%" x2="11.908303%" y2="57.0575152%" id="linearGradient-153">
            <stop stop-color="#EE2649" offset="0%"></stop>
            <stop stop-color="#F36E44" offset="100%"></stop>
        </linearGradient>
        <linearGradient x1="50.0723078%" y1="-4.65755143%" x2="49.9449135%" y2="95.5619669%" id="linearGradient-154">
            <stop stop-color="#EE2649" offset="0%"></stop>
            <stop stop-color="#F36E44" offset="100%"></stop>
        </linearGradient>
        <linearGradient x1="50.5014763%" y1="-4.65755143%" x2="49.6179583%" y2="95.5619669%" id="linearGradient-155">
            <stop stop-color="#EE2649" offset="0%"></stop>
            <stop stop-color="#F36E44" offset="100%"></stop>
        </linearGradient>
        <linearGradient x1="100%" y1="31.8360421%" x2="11.908303%" y2="65.1412865%" id="linearGradient-156">
            <stop stop-color="#EE2649" offset="0%"></stop>
            <stop stop-color="#F36E44" offset="100%"></stop>
        </linearGradient>
        <linearGradient x1="83.3933755%" y1="-4.65755143%" x2="24.5597932%" y2="95.5619669%" id="linearGradient-157">
            <stop stop-color="#EE2649" offset="0%"></stop>
            <stop stop-color="#F36E44" offset="100%"></stop>
        </linearGradient>
    </defs>
    <g id="figure1" stroke="none" stroke-width="1" fill="none" fill-rule="evenodd">
        <g id="2-copy" transform="translate(2.000000, 2.000000)">
            <g id="Group-8">
                <g id="Group-12" transform="translate(165.384615, 0.000000)" stroke-linecap="round" stroke-linejoin="round" stroke-width="4">
                    <polyline id="Path-11" stroke="url(#linearGradient-1)" opacity="0.100000001" points="174.072364 69.7515972 99.4793517 25.5564669 143.492501 0.262239866 165.39866 13.3083226"></polyline>
                    <polyline id="Path-12" stroke="url(#linearGradient-2)" opacity="0.100000001" points="99.7447873 25.9771726 32.6654277 25.9771726 0.0505591555 6.84347885"></polyline>
                    <polyline id="Path-19" stroke="url(#linearGradient-3)" points="77.4987589 25.8551679 99.6338381 25.8551679 110.53074 31.5809721"></polyline>
                </g>
                <g id="5" transform="translate(330.769231, 16.514100)">
                    <g id="Big" transform="translate(0.000000, 36.187419)">
                        <g id="Page-1">
                            <g id="Group-2">
                                <g id="Group-3" transform="translate(0.000000, 8.436106)">
                                    <mask id="mask-5" fill="white">
                                        <use xlink:href="#path-4"></use>
                                    </mask>
                                    <g id="Clip-2"></g>
                                    <g id="Group-7" mask="url(#mask-5)">
                                        <g id="Path-6" transform="translate(0.000000, -0.000000)">
                                            <mask id="mask-7" fill="white">
                                                <use xlink:href="#path-6"></use>
                                            </mask>
                                            <use id="Mask" fill="#DC0A2E" xlink:href="#path-6"></use>
                                            <polygon fill="#EE2649" mask="url(#mask-7)" points="21.1316634 14.2404575 21.1316634 44.1320245 50.0122912 29.186241 48.0673114 -1.75837797"></polygon>
                                        </g>
                                    </g>
                                </g>
                                <g id="Group-6" transform="translate(0.000000, 0.081899)">
                                    <mask id="mask-9" fill="white">
                                        <use xlink:href="#path-8"></use>
                                    </mask>
                                    <g id="Clip-5"></g>
                                    <path d="M42.1551554,13.5203307 L23.5035095,24.1913921 C22.389962,24.8285031 20.5849818,24.825764 19.4722587,24.1855031 L0.834216133,13.4602078 C-0.278644336,12.8199468 -0.2779573,11.7842991 0.835590204,11.1471881 L19.4872361,0.476126614 C20.600921,-0.160984387 22.4057638,-0.158382257 23.5186243,0.482015645 L42.1566669,11.207174 C43.2693899,11.8475719 43.2688403,12.8832197 42.1551554,13.5203307" id="Fill-4" fill="#F36E44" mask="url(#mask-9)"></path>
                                </g>
                            </g>
                        </g>
                        <g id="Page-1" transform="translate(9.009283, 31.394630) scale(-1, 1) translate(-9.009283, -31.394630) translate(4.509283, 23.894630)">
                            <g id="Group-3" transform="translate(0.000000, 0.047986)">
                                <mask id="mask-11" fill="white">
                                    <use xlink:href="#path-10"></use>
                                </mask>
                                <g id="Clip-2"></g>
                                <polygon id="Fill-1" fill="#AAB8CC" mask="url(#mask-11)" points="2.43944464 -3.81159467 -1.73821507 3.40045603 8.48821206 9.28520085 12.6658718 2.07315016"></polygon>
                            </g>
                            <g id="Group-6" transform="translate(0.000000, 0.047986)">
                                <mask id="mask-13" fill="white">
                                    <use xlink:href="#path-12"></use>
                                </mask>
                                <g id="Clip-5"></g>
                                <polygon id="Fill-4" fill="#FFFFFF" mask="url(#mask-13)" points="-1.73820248 3.40043094 -5.91586219 10.6124816 4.31056494 16.4972265 8.48822465 9.28517576"></polygon>
                            </g>
                        </g>
                        <g id="Page-1" transform="translate(28.175551, 23.738103)">
                            <g id="Group-3" transform="translate(0.000000, 0.047986)">
                                <mask id="mask-15" fill="white">
                                    <use xlink:href="#path-14"></use>
                                </mask>
                                <g id="Clip-2"></g>
                                <polygon id="Fill-1" fill="#AAB8CC" mask="url(#mask-15)" points="2.43944464 -3.81159467 -1.73821507 3.40045603 8.48821206 9.28520085 12.6658718 2.07315016"></polygon>
                            </g>
                            <g id="Group-6" transform="translate(0.000000, 0.047986)">
                                <mask id="mask-17" fill="white">
                                    <use xlink:href="#path-16"></use>
                                </mask>
                                <g id="Clip-5"></g>
                                <polygon id="Fill-4" fill="#FFFFFF" mask="url(#mask-17)" points="-1.73820248 3.40043094 -5.91586219 10.6124816 4.31056494 16.4972265 8.48822465 9.28517576"></polygon>
                            </g>
                        </g>
                        <g id="Page-1" transform="translate(14.087776, 7.912701)">
                            <mask id="mask-19" fill="white">
                                <use xlink:href="#path-18"></use>
                            </mask>
                            <g id="Clip-2"></g>
                            <polygon id="Fill-1" fill="#AAB8CC" mask="url(#mask-19)" points="7.94098631 11.4165338 16.391233 11.4165338 16.391233 -0.508446642 7.94098631 -0.508446642"></polygon>
                            <polygon id="Fill-3" fill="#565E68" mask="url(#mask-19)" points="-0.509196708 11.4165338 7.94104996 11.4165338 7.94104996 -0.508446642 -0.509196708 -0.508446642"></polygon>
                        </g>
                    </g>
                    <polygon id="Path-7" fill="url(#linearGradient-20)" opacity="0.200000003" points="13.8060201 49.4150359 13.8060201 11.9139638 22.0051234 16.6602716 30.2006689 11.9139638 30.2006689 49.4150359 22.0051234 54.1311464"></polygon>
                    <g id="Small" transform="translate(13.806020, 0.000000)">
                        <g id="Page-1">
                            <g id="Group-2">
                                <path d="M16.0189591,15.1730409 L8.93133362,19.2280443 C8.50818557,19.4701464 7.82229307,19.4691056 7.39945831,19.2258064 L0.31700213,15.1501942 C-0.105884848,14.906895 -0.105623774,14.5133489 0.317524278,14.2712467 L7.40514971,10.2162434 C7.82834998,9.97414119 8.51419026,9.97513 8.93707724,10.2184812 L16.0195334,14.2940414 C16.4423682,14.5373926 16.4421593,14.9309387 16.0189591,15.1730409" id="Fill-4" fill="#F36E44" filter="url(#filter-21)"></path>
                                <g id="Group-3" transform="translate(0.000000, 3.205720)">
                                    <mask id="mask-23" fill="white">
                                        <use xlink:href="#path-22"></use>
                                    </mask>
                                    <g id="Clip-2"></g>
                                    <g id="Group-7" mask="url(#mask-23)">
                                        <g id="Path-6" transform="translate(0.000000, -0.000000)">
                                            <mask id="mask-25" fill="white">
                                                <use xlink:href="#path-24"></use>
                                            </mask>
                                            <use id="Mask" fill="#DC0A2E" xlink:href="#path-24"></use>
                                            <polygon fill="#EE2649" mask="url(#mask-25)" points="8.12478067 5.44640807 8.12478067 16.8052035 19.0994192 11.1258058 18.3603269 -0.633149421"></polygon>
                                        </g>
                                    </g>
                                </g>
                                <g id="Group-6" transform="translate(0.000000, 0.031121)">
                                    <mask id="mask-27" fill="white">
                                        <use xlink:href="#path-26"></use>
                                    </mask>
                                    <g id="Clip-5"></g>
                                    <path d="M16.0189591,5.13772565 L8.93133362,9.192729 C8.50818557,9.43483118 7.82229307,9.43379033 7.39945831,9.19049117 L0.31700213,5.11487895 C-0.105884848,4.87157979 -0.105623774,4.47803364 0.317524278,4.23593146 L7.40514971,0.180928113 C7.82834998,-0.061174067 8.51419026,-0.0601852576 8.93707724,0.183165945 L16.0195334,4.25872612 C16.4423682,4.50207732 16.4421593,4.89562347 16.0189591,5.13772565" id="Fill-4" fill="#FFFFFF" mask="url(#mask-27)"></path>
                                </g>
                            </g>
                        </g>
                    </g>
                </g>
                <g id="4" transform="translate(88.444816, 16.514100)">
                    <g id="Big" transform="translate(0.000000, 36.187419)">
                        <g id="Page-1">
                            <g id="Group-2">
                                <g id="Group-3" transform="translate(0.000000, 8.436106)">
                                    <mask id="mask-29" fill="white">
                                        <use xlink:href="#path-28"></use>
                                    </mask>
                                    <g id="Clip-2"></g>
                                    <g id="Group-7" mask="url(#mask-29)">
                                        <g id="Path-6" transform="translate(0.000000, -0.000000)">
                                            <mask id="mask-31" fill="white">
                                                <use xlink:href="#path-30"></use>
                                            </mask>
                                            <use id="Mask" fill="#DC0A2E" xlink:href="#path-30"></use>
                                            <polygon fill="#EE2649" mask="url(#mask-31)" points="21.1316634 14.2404575 21.1316634 44.1320245 50.0122912 29.186241 48.0673114 -1.75837797"></polygon>
                                        </g>
                                    </g>
                                </g>
                                <g id="Group-6" transform="translate(0.000000, 0.081899)">
                                    <mask id="mask-33" fill="white">
                                        <use xlink:href="#path-32"></use>
                                    </mask>
                                    <g id="Clip-5"></g>
                                    <path d="M42.1551554,13.5203307 L23.5035095,24.1913921 C22.389962,24.8285031 20.5849818,24.825764 19.4722587,24.1855031 L0.834216133,13.4602078 C-0.278644336,12.8199468 -0.2779573,11.7842991 0.835590204,11.1471881 L19.4872361,0.476126614 C20.600921,-0.160984387 22.4057638,-0.158382257 23.5186243,0.482015645 L42.1566669,11.207174 C43.2693899,11.8475719 43.2688403,12.8832197 42.1551554,13.5203307" id="Fill-4" fill="#F36E44" mask="url(#mask-33)"></path>
                                </g>
                            </g>
                        </g>
                        <g id="Page-1" transform="translate(9.009283, 31.394630) scale(-1, 1) translate(-9.009283, -31.394630) translate(4.509283, 23.894630)">
                            <g id="Group-3" transform="translate(0.000000, 0.047986)">
                                <mask id="mask-35" fill="white">
                                    <use xlink:href="#path-34"></use>
                                </mask>
                                <g id="Clip-2"></g>
                                <polygon id="Fill-1" fill="#AAB8CC" mask="url(#mask-35)" points="2.43944464 -3.81159467 -1.73821507 3.40045603 8.48821206 9.28520085 12.6658718 2.07315016"></polygon>
                            </g>
                            <g id="Group-6" transform="translate(0.000000, 0.047986)">
                                <mask id="mask-37" fill="white">
                                    <use xlink:href="#path-36"></use>
                                </mask>
                                <g id="Clip-5"></g>
                                <polygon id="Fill-4" fill="#FFFFFF" mask="url(#mask-37)" points="-1.73820248 3.40043094 -5.91586219 10.6124816 4.31056494 16.4972265 8.48822465 9.28517576"></polygon>
                            </g>
                        </g>
                        <g id="Page-1" transform="translate(28.175551, 23.738103)">
                            <g id="Group-3" transform="translate(0.000000, 0.047986)">
                                <mask id="mask-39" fill="white">
                                    <use xlink:href="#path-38"></use>
                                </mask>
                                <g id="Clip-2"></g>
                                <polygon id="Fill-1" fill="#AAB8CC" mask="url(#mask-39)" points="2.43944464 -3.81159467 -1.73821507 3.40045603 8.48821206 9.28520085 12.6658718 2.07315016"></polygon>
                            </g>
                            <g id="Group-6" transform="translate(0.000000, 0.047986)">
                                <mask id="mask-41" fill="white">
                                    <use xlink:href="#path-40"></use>
                                </mask>
                                <g id="Clip-5"></g>
                                <polygon id="Fill-4" fill="#FFFFFF" mask="url(#mask-41)" points="-1.73820248 3.40043094 -5.91586219 10.6124816 4.31056494 16.4972265 8.48822465 9.28517576"></polygon>
                            </g>
                        </g>
                        <g id="Page-1" transform="translate(14.087776, 7.912701)">
                            <mask id="mask-43" fill="white">
                                <use xlink:href="#path-42"></use>
                            </mask>
                            <g id="Clip-2"></g>
                            <polygon id="Fill-1" fill="#AAB8CC" mask="url(#mask-43)" points="7.94098631 11.4165338 16.391233 11.4165338 16.391233 -0.508446642 7.94098631 -0.508446642"></polygon>
                            <polygon id="Fill-3" fill="#565E68" mask="url(#mask-43)" points="-0.509196708 11.4165338 7.94104996 11.4165338 7.94104996 -0.508446642 -0.509196708 -0.508446642"></polygon>
                        </g>
                    </g>
                    <polygon id="Path-7" fill="url(#linearGradient-20)" opacity="0.200000003" points="13.8060201 49.4150359 13.8060201 11.9139638 22.0051234 16.6602716 30.2006689 11.9139638 30.2006689 49.4150359 22.0051234 54.1311464"></polygon>
                    <g id="Small" transform="translate(13.806020, 0.000000)">
                        <g id="Page-1">
                            <g id="Group-2">
                                <path d="M16.0189591,15.1730409 L8.93133362,19.2280443 C8.50818557,19.4701464 7.82229307,19.4691056 7.39945831,19.2258064 L0.31700213,15.1501942 C-0.105884848,14.906895 -0.105623774,14.5133489 0.317524278,14.2712467 L7.40514971,10.2162434 C7.82834998,9.97414119 8.51419026,9.97513 8.93707724,10.2184812 L16.0195334,14.2940414 C16.4423682,14.5373926 16.4421593,14.9309387 16.0189591,15.1730409" id="Fill-4" fill="#F36E44" filter="url(#filter-44)"></path>
                                <g id="Group-3" transform="translate(0.000000, 3.205720)">
                                    <mask id="mask-46" fill="white">
                                        <use xlink:href="#path-45"></use>
                                    </mask>
                                    <g id="Clip-2"></g>
                                    <g id="Group-7" mask="url(#mask-46)">
                                        <g id="Path-6" transform="translate(0.000000, -0.000000)">
                                            <mask id="mask-48" fill="white">
                                                <use xlink:href="#path-47"></use>
                                            </mask>
                                            <use id="Mask" fill="#DC0A2E" xlink:href="#path-47"></use>
                                            <polygon fill="#EE2649" mask="url(#mask-48)" points="8.12478067 5.44640807 8.12478067 16.8052035 19.0994192 11.1258058 18.3603269 -0.633149421"></polygon>
                                        </g>
                                    </g>
                                </g>
                                <g id="Group-6" transform="translate(0.000000, 0.031121)">
                                    <mask id="mask-50" fill="white">
                                        <use xlink:href="#path-49"></use>
                                    </mask>
                                    <g id="Clip-5"></g>
                                    <path d="M16.0189591,5.13772565 L8.93133362,9.192729 C8.50818557,9.43483118 7.82229307,9.43379033 7.39945831,9.19049117 L0.31700213,5.11487895 C-0.105884848,4.87157979 -0.105623774,4.47803364 0.317524278,4.23593146 L7.40514971,0.180928113 C7.82834998,-0.061174067 8.51419026,-0.0601852576 8.93707724,0.183165945 L16.0195334,4.25872612 C16.4423682,4.50207732 16.4421593,4.89562347 16.0189591,5.13772565" id="Fill-4" fill="#FFFFFF" mask="url(#mask-50)"></path>
                                </g>
                            </g>
                        </g>
                    </g>
                </g>
                <path d="M342.485613,81.8524946 L246.638796,137.750254" id="Path-8" stroke="url(#linearGradient-51)" stroke-width="4" opacity="0.100000001" stroke-linecap="round" stroke-linejoin="round"></path>
                <path d="M299.096343,106.982646 L289.782609,112.414406" id="e" stroke="url(#linearGradient-52)" stroke-width="4" stroke-linecap="round" stroke-linejoin="round"></path>
                <path d="M218.467515,138.779581 L117.926421,81.8524946" id="Path-8" stroke="url(#linearGradient-53)" stroke-width="4" opacity="0.100000001" stroke-linecap="round" stroke-linejoin="round"></path>
                <path d="M180.431305,117.204974 L156.036789,103.392625" id="e" stroke="url(#linearGradient-54)" stroke-width="4" stroke-linecap="round" stroke-linejoin="round"></path>
                <g id="1" transform="translate(209.966555, 17.232104)">
                    <g id="Big" transform="translate(0.000000, 105.115835)">
                        <g id="Page-1">
                            <g id="Group-2">
                                <g id="Group-3" transform="translate(0.000000, 8.436106)">
                                    <mask id="mask-56" fill="white">
                                        <use xlink:href="#path-55"></use>
                                    </mask>
                                    <g id="Clip-2"></g>
                                    <g id="Group-7" mask="url(#mask-56)">
                                        <g id="Path-6" transform="translate(0.000000, -0.000000)">
                                            <mask id="mask-58" fill="white">
                                                <use xlink:href="#path-57"></use>
                                            </mask>
                                            <use id="Mask" fill="#DC0A2E" xlink:href="#path-57"></use>
                                            <polygon fill="#EE2649" mask="url(#mask-58)" points="21.1316634 14.2404575 21.1316634 44.1320245 50.0122912 29.186241 48.0673114 -1.75837797"></polygon>
                                        </g>
                                    </g>
                                </g>
                                <g id="Group-6" transform="translate(0.000000, 0.081899)">
                                    <mask id="mask-60" fill="white">
                                        <use xlink:href="#path-59"></use>
                                    </mask>
                                    <g id="Clip-5"></g>
                                    <path d="M42.1551554,13.5203307 L23.5035095,24.1913921 C22.389962,24.8285031 20.5849818,24.825764 19.4722587,24.1855031 L0.834216133,13.4602078 C-0.278644336,12.8199468 -0.2779573,11.7842991 0.835590204,11.1471881 L19.4872361,0.476126614 C20.600921,-0.160984387 22.4057638,-0.158382257 23.5186243,0.482015645 L42.1566669,11.207174 C43.2693899,11.8475719 43.2688403,12.8832197 42.1551554,13.5203307" id="Fill-4" fill="#F36E44" mask="url(#mask-60)"></path>
                                </g>
                            </g>
                        </g>
                        <g id="Page-1" transform="translate(9.009283, 31.394630) scale(-1, 1) translate(-9.009283, -31.394630) translate(4.509283, 23.894630)">
                            <g id="Group-3" transform="translate(0.000000, 0.047986)">
                                <mask id="mask-62" fill="white">
                                    <use xlink:href="#path-61"></use>
                                </mask>
                                <g id="Clip-2"></g>
                                <polygon id="Fill-1" fill="#AAB8CC" mask="url(#mask-62)" points="2.43944464 -3.81159467 -1.73821507 3.40045603 8.48821206 9.28520085 12.6658718 2.07315016"></polygon>
                            </g>
                            <g id="Group-6" transform="translate(0.000000, 0.047986)">
                                <mask id="mask-64" fill="white">
                                    <use xlink:href="#path-63"></use>
                                </mask>
                                <g id="Clip-5"></g>
                                <polygon id="Fill-4" fill="#FFFFFF" mask="url(#mask-64)" points="-1.73820248 3.40043094 -5.91586219 10.6124816 4.31056494 16.4972265 8.48822465 9.28517576"></polygon>
                            </g>
                        </g>
                        <g id="Page-1" transform="translate(28.175551, 23.738103)">
                            <g id="Group-3" transform="translate(0.000000, 0.047986)">
                                <mask id="mask-66" fill="white">
                                    <use xlink:href="#path-65"></use>
                                </mask>
                                <g id="Clip-2"></g>
                                <polygon id="Fill-1" fill="#AAB8CC" mask="url(#mask-66)" points="2.43944464 -3.81159467 -1.73821507 3.40045603 8.48821206 9.28520085 12.6658718 2.07315016"></polygon>
                            </g>
                            <g id="Group-6" transform="translate(0.000000, 0.047986)">
                                <mask id="mask-68" fill="white">
                                    <use xlink:href="#path-67"></use>
                                </mask>
                                <g id="Clip-5"></g>
                                <polygon id="Fill-4" fill="#FFFFFF" mask="url(#mask-68)" points="-1.73820248 3.40043094 -5.91586219 10.6124816 4.31056494 16.4972265 8.48822465 9.28517576"></polygon>
                            </g>
                        </g>
                        <g id="Page-1" transform="translate(14.087776, 7.912701)">
                            <mask id="mask-70" fill="white">
                                <use xlink:href="#path-69"></use>
                            </mask>
                            <g id="Clip-2"></g>
                            <polygon id="Fill-1" fill="#AAB8CC" mask="url(#mask-70)" points="7.94098631 11.4165338 16.391233 11.4165338 16.391233 -0.508446642 7.94098631 -0.508446642"></polygon>
                            <polygon id="Fill-3" fill="#565E68" mask="url(#mask-70)" points="-0.509196708 11.4165338 7.94104996 11.4165338 7.94104996 -0.508446642 -0.509196708 -0.508446642"></polygon>
                        </g>
                    </g>
                    <g id="Group-9" transform="translate(13.806020, 68.928416)">
                        <polygon id="Path-7" fill="url(#linearGradient-71)" opacity="0.200000003" points="0 49.4150359 0 11.9139638 8.19910335 16.6602716 16.3946488 11.9139638 16.3946488 49.4150359 8.19910335 54.1311464"></polygon>
                        <g id="Small">
                            <g id="Page-1">
                                <g id="Group-2">
                                    <path d="M16.0189591,15.1730409 L8.93133362,19.2280443 C8.50818557,19.4701464 7.82229307,19.4691056 7.39945831,19.2258064 L0.31700213,15.1501942 C-0.105884848,14.906895 -0.105623774,14.5133489 0.317524278,14.2712467 L7.40514971,10.2162434 C7.82834998,9.97414119 8.51419026,9.97513 8.93707724,10.2184812 L16.0195334,14.2940414 C16.4423682,14.5373926 16.4421593,14.9309387 16.0189591,15.1730409" id="Fill-4" fill="#F36E44" filter="url(#filter-72)"></path>
                                    <g id="Group-3" transform="translate(0.000000, 3.205720)">
                                        <mask id="mask-74" fill="white">
                                            <use xlink:href="#path-73"></use>
                                        </mask>
                                        <g id="Clip-2"></g>
                                        <g id="Group-7" mask="url(#mask-74)">
                                            <g id="Path-6" transform="translate(0.000000, -0.000000)">
                                                <mask id="mask-76" fill="white">
                                                    <use xlink:href="#path-75"></use>
                                                </mask>
                                                <use id="Mask" fill="#DC0A2E" xlink:href="#path-75"></use>
                                                <polygon fill="#EE2649" mask="url(#mask-76)" points="8.12478067 5.44640807 8.12478067 16.8052035 19.0994192 11.1258058 18.3603269 -0.633149421"></polygon>
                                            </g>
                                        </g>
                                    </g>
                                    <g id="Group-6" transform="translate(0.000000, 0.031121)">
                                        <mask id="mask-78" fill="white">
                                            <use xlink:href="#path-77"></use>
                                        </mask>
                                        <g id="Clip-5"></g>
                                        <path d="M16.0189591,5.13772565 L8.93133362,9.192729 C8.50818557,9.43483118 7.82229307,9.43379033 7.39945831,9.19049117 L0.31700213,5.11487895 C-0.105884848,4.87157979 -0.105623774,4.47803364 0.317524278,4.23593146 L7.40514971,0.180928113 C7.82834998,-0.061174067 8.51419026,-0.0601852576 8.93707724,0.183165945 L16.0195334,4.25872612 C16.4423682,4.50207732 16.4421593,4.89562347 16.0189591,5.13772565" id="Fill-4" fill="#FFFFFF" mask="url(#mask-78)"></path>
                                    </g>
                                </g>
                            </g>
                        </g>
                    </g>
                    <g id="Group-9" transform="translate(13.806020, 23.263341)">
                        <polygon id="Path-7" fill="url(#linearGradient-71)" opacity="0.200000003" points="0 49.4150359 0 11.9139638 8.19910335 16.6602716 16.3946488 11.9139638 16.3946488 49.4150359 8.19910335 54.1311464"></polygon>
                        <g id="Small">
                            <g id="Page-1">
                                <g id="Group-2">
                                    <path d="M16.0189591,15.1730409 L8.93133362,19.2280443 C8.50818557,19.4701464 7.82229307,19.4691056 7.39945831,19.2258064 L0.31700213,15.1501942 C-0.105884848,14.906895 -0.105623774,14.5133489 0.317524278,14.2712467 L7.40514971,10.2162434 C7.82834998,9.97414119 8.51419026,9.97513 8.93707724,10.2184812 L16.0195334,14.2940414 C16.4423682,14.5373926 16.4421593,14.9309387 16.0189591,15.1730409" id="Fill-4" fill="#F36E44" filter="url(#filter-79)"></path>
                                    <g id="Group-3" transform="translate(0.000000, 3.205720)">
                                        <mask id="mask-81" fill="white">
                                            <use xlink:href="#path-80"></use>
                                        </mask>
                                        <g id="Clip-2"></g>
                                        <g id="Group-7" mask="url(#mask-81)">
                                            <g id="Path-6" transform="translate(0.000000, -0.000000)">
                                                <mask id="mask-83" fill="white">
                                                    <use xlink:href="#path-82"></use>
                                                </mask>
                                                <use id="Mask" fill="#DC0A2E" xlink:href="#path-82"></use>
                                                <polygon fill="#EE2649" mask="url(#mask-83)" points="8.12478067 5.44640807 8.12478067 16.8052035 19.0994192 11.1258058 18.3603269 -0.633149421"></polygon>
                                            </g>
                                        </g>
                                    </g>
                                    <g id="Group-6" transform="translate(0.000000, 0.031121)">
                                        <mask id="mask-85" fill="white">
                                            <use xlink:href="#path-84"></use>
                                        </mask>
                                        <g id="Clip-5"></g>
                                        <path d="M16.0189591,5.13772565 L8.93133362,9.192729 C8.50818557,9.43483118 7.82229307,9.43379033 7.39945831,9.19049117 L0.31700213,5.11487895 C-0.105884848,4.87157979 -0.105623774,4.47803364 0.317524278,4.23593146 L7.40514971,0.180928113 C7.82834998,-0.061174067 8.51419026,-0.0601852576 8.93707724,0.183165945 L16.0195334,4.25872612 C16.4423682,4.50207732 16.4421593,4.89562347 16.0189591,5.13772565" id="Fill-4" fill="#FFFFFF" mask="url(#mask-85)"></path>
                                    </g>
                                </g>
                            </g>
                        </g>
                    </g>
                    <g id="Group-5" transform="translate(13.806020, 0.000000)">
                        <g id="Big" transform="translate(0.000000, 13.751219)">
                            <g id="Page-1">
                                <g id="Group-2">
                                    <g id="Group-3" transform="translate(0.000000, 3.205720)">
                                        <mask id="mask-87" fill="white">
                                            <use xlink:href="#path-86"></use>
                                        </mask>
                                        <g id="Clip-2"></g>
                                        <g id="Group-7" mask="url(#mask-87)">
                                            <g id="Path-6" transform="translate(0.000000, -0.000000)">
                                                <mask id="mask-89" fill="white">
                                                    <use xlink:href="#path-88"></use>
                                                </mask>
                                                <use id="Mask" fill="#DC0A2E" xlink:href="#path-88"></use>
                                                <polygon fill="#EE2649" mask="url(#mask-89)" points="8.03003208 5.41137386 8.03003208 16.7701693 19.0046706 11.0907716 18.2655783 -0.668183629"></polygon>
                                            </g>
                                        </g>
                                    </g>
                                    <g id="Group-6" transform="translate(0.000000, 0.031121)">
                                        <mask id="mask-91" fill="white">
                                            <use xlink:href="#path-90"></use>
                                        </mask>
                                        <g id="Clip-5"></g>
                                        <path d="M16.0189591,5.13772565 L8.93133362,9.192729 C8.50818557,9.43483118 7.82229307,9.43379033 7.39945831,9.19049117 L0.31700213,5.11487895 C-0.105884848,4.87157979 -0.105623774,4.47803364 0.317524278,4.23593146 L7.40514971,0.180928113 C7.82834998,-0.061174067 8.51419026,-0.0601852576 8.93707724,0.183165945 L16.0195334,4.25872612 C16.4423682,4.50207732 16.4421593,4.89562347 16.0189591,5.13772565" id="Fill-4" fill="#F36E44" mask="url(#mask-91)"></path>
                                    </g>
                                </g>
                            </g>
                            <g id="Page-1" transform="translate(5.353355, 3.006826)">
                                <mask id="mask-93" fill="white">
                                    <use xlink:href="#path-92"></use>
                                </mask>
                                <g id="Clip-2"></g>
                                <polygon id="Fill-1" fill="#AAB8CC" mask="url(#mask-93)" points="3.0175748 4.33828284 6.22866853 4.33828284 6.22866853 -0.193209724 3.0175748 -0.193209724"></polygon>
                                <polygon id="Fill-3" fill="#565E68" mask="url(#mask-93)" points="-0.193494749 4.33828284 3.01759898 4.33828284 3.01759898 -0.193209724 -0.193494749 -0.193209724"></polygon>
                            </g>
                        </g>
                        <polygon id="Path-7" fill="url(#linearGradient-94)" opacity="0.5" points="5.24628763 18.7777136 5.24628763 4.52730624 8.3619469 6.33090322 11.4762542 4.52730624 11.4762542 18.7777136 8.3619469 20.5698356"></polygon>
                        <g id="Small" transform="translate(4.246288, 0.000000)">
                            <g id="Page-1" transform="translate(1.000000, 0.000000)">
                                <g id="Group-2">
                                    <path d="M6.08720444,5.76575555 L3.39390678,7.30665682 C3.23311052,7.39865565 2.97247137,7.39826012 2.81179416,7.30580644 L0.12046081,5.7570738 C-0.0402362421,5.66462012 -0.0401370341,5.51507258 0.120659225,5.42307375 L2.81395689,3.88217248 C2.97477299,3.79017365 3.2353923,3.7905494 3.39608935,3.88302286 L6.0874227,5.43173572 C6.24809991,5.52420918 6.24802054,5.67375672 6.08720444,5.76575555" id="Fill-4" fill="#F36E44" filter="url(#filter-95)"></path>
                                    <g id="Group-3" transform="translate(0.000000, 1.218174)">
                                        <mask id="mask-97" fill="white">
                                            <use xlink:href="#path-96"></use>
                                        </mask>
                                        <g id="Clip-2"></g>
                                        <g id="Group-7" mask="url(#mask-97)">
                                            <g id="Path-6" transform="translate(0.000000, -0.000000)">
                                                <mask id="mask-99" fill="white">
                                                    <use xlink:href="#path-98"></use>
                                                </mask>
                                                <use id="Mask" fill="#DC0A2E" xlink:href="#path-98"></use>
                                                <polygon fill="#EE2649" mask="url(#mask-99)" points="3.08741666 2.06963507 3.08741666 6.38597733 7.25777931 4.2278062 6.97692424 -0.24059678"></polygon>
                                            </g>
                                        </g>
                                    </g>
                                    <g id="Group-6" transform="translate(0.000000, 0.011826)">
                                        <mask id="mask-101" fill="white">
                                            <use xlink:href="#path-100"></use>
                                        </mask>
                                        <g id="Clip-5"></g>
                                        <path d="M6.08720444,1.95233575 L3.39390678,3.49323702 C3.23311052,3.58523585 2.97247137,3.58484033 2.81179416,3.49238665 L0.12046081,1.943654 C-0.0402362421,1.85120032 -0.0401370341,1.70165278 0.120659225,1.60965396 L2.81395689,0.0687526831 C2.97477299,-0.0232461455 3.2353923,-0.0228703979 3.39608935,0.0696030592 L6.0874227,1.61831593 C6.24809991,1.71078938 6.24802054,1.86033692 6.08720444,1.95233575" id="Fill-4" fill="#FFFFFF" mask="url(#mask-101)"></path>
                                    </g>
                                </g>
                            </g>
                        </g>
                    </g>
                </g>
                <path d="M339.989255,208.426002 L239.448161,151.498915" id="Path-8" stroke="url(#linearGradient-53)" stroke-width="4" opacity="0.100000001" stroke-linecap="round" stroke-linejoin="round"></path>
                <path d="M221.844446,152.132779 L125.997629,208.030538" id="Path-8" stroke="url(#linearGradient-51)" stroke-width="4" opacity="0.100000001" stroke-linecap="round" stroke-linejoin="round"></path>
                <g id="2" transform="translate(88.444816, 156.524946)">
                    <g id="Big" transform="translate(0.000000, 36.187419)">
                        <g id="Page-1">
                            <g id="Group-2">
                                <g id="Group-3" transform="translate(0.000000, 8.436106)">
                                    <mask id="mask-103" fill="white">
                                        <use xlink:href="#path-102"></use>
                                    </mask>
                                    <g id="Clip-2"></g>
                                    <g id="Group-7" mask="url(#mask-103)">
                                        <g id="Path-6" transform="translate(0.000000, -0.000000)">
                                            <mask id="mask-105" fill="white">
                                                <use xlink:href="#path-104"></use>
                                            </mask>
                                            <use id="Mask" fill="#DC0A2E" xlink:href="#path-104"></use>
                                            <polygon fill="#EE2649" mask="url(#mask-105)" points="21.1316634 14.2404575 21.1316634 44.1320245 50.0122912 29.186241 48.0673114 -1.75837797"></polygon>
                                        </g>
                                    </g>
                                </g>
                                <g id="Group-6" transform="translate(0.000000, 0.081899)">
                                    <mask id="mask-107" fill="white">
                                        <use xlink:href="#path-106"></use>
                                    </mask>
                                    <g id="Clip-5"></g>
                                    <path d="M42.1551554,13.5203307 L23.5035095,24.1913921 C22.389962,24.8285031 20.5849818,24.825764 19.4722587,24.1855031 L0.834216133,13.4602078 C-0.278644336,12.8199468 -0.2779573,11.7842991 0.835590204,11.1471881 L19.4872361,0.476126614 C20.600921,-0.160984387 22.4057638,-0.158382257 23.5186243,0.482015645 L42.1566669,11.207174 C43.2693899,11.8475719 43.2688403,12.8832197 42.1551554,13.5203307" id="Fill-4" fill="#F36E44" mask="url(#mask-107)"></path>
                                </g>
                            </g>
                        </g>
                        <g id="Page-1" transform="translate(9.009283, 31.394630) scale(-1, 1) translate(-9.009283, -31.394630) translate(4.509283, 23.894630)">
                            <g id="Group-3" transform="translate(0.000000, 0.047986)">
                                <mask id="mask-109" fill="white">
                                    <use xlink:href="#path-108"></use>
                                </mask>
                                <g id="Clip-2"></g>
                                <polygon id="Fill-1" fill="#AAB8CC" mask="url(#mask-109)" points="2.43944464 -3.81159467 -1.73821507 3.40045603 8.48821206 9.28520085 12.6658718 2.07315016"></polygon>
                            </g>
                            <g id="Group-6" transform="translate(0.000000, 0.047986)">
                                <mask id="mask-111" fill="white">
                                    <use xlink:href="#path-110"></use>
                                </mask>
                                <g id="Clip-5"></g>
                                <polygon id="Fill-4" fill="#FFFFFF" mask="url(#mask-111)" points="-1.73820248 3.40043094 -5.91586219 10.6124816 4.31056494 16.4972265 8.48822465 9.28517576"></polygon>
                            </g>
                        </g>
                        <g id="Page-1" transform="translate(28.175551, 23.738103)">
                            <g id="Group-3" transform="translate(0.000000, 0.047986)">
                                <mask id="mask-113" fill="white">
                                    <use xlink:href="#path-112"></use>
                                </mask>
                                <g id="Clip-2"></g>
                                <polygon id="Fill-1" fill="#AAB8CC" mask="url(#mask-113)" points="2.43944464 -3.81159467 -1.73821507 3.40045603 8.48821206 9.28520085 12.6658718 2.07315016"></polygon>
                            </g>
                            <g id="Group-6" transform="translate(0.000000, 0.047986)">
                                <mask id="mask-115" fill="white">
                                    <use xlink:href="#path-114"></use>
                                </mask>
                                <g id="Clip-5"></g>
                                <polygon id="Fill-4" fill="#FFFFFF" mask="url(#mask-115)" points="-1.73820248 3.40043094 -5.91586219 10.6124816 4.31056494 16.4972265 8.48822465 9.28517576"></polygon>
                            </g>
                        </g>
                        <g id="Page-1" transform="translate(14.087776, 7.912701)">
                            <mask id="mask-117" fill="white">
                                <use xlink:href="#path-116"></use>
                            </mask>
                            <g id="Clip-2"></g>
                            <polygon id="Fill-1" fill="#AAB8CC" mask="url(#mask-117)" points="7.94098631 11.4165338 16.391233 11.4165338 16.391233 -0.508446642 7.94098631 -0.508446642"></polygon>
                            <polygon id="Fill-3" fill="#565E68" mask="url(#mask-117)" points="-0.509196708 11.4165338 7.94104996 11.4165338 7.94104996 -0.508446642 -0.509196708 -0.508446642"></polygon>
                        </g>
                    </g>
                    <polygon id="Path-7" fill="url(#linearGradient-20)" opacity="0.200000003" points="13.8060201 49.4150359 13.8060201 11.9139638 22.0051234 16.6602716 30.2006689 11.9139638 30.2006689 49.4150359 22.0051234 54.1311464"></polygon>
                    <g id="Small" transform="translate(13.806020, 0.000000)">
                        <g id="Page-1">
                            <g id="Group-2">
                                <path d="M16.0189591,15.1730409 L8.93133362,19.2280443 C8.50818557,19.4701464 7.82229307,19.4691056 7.39945831,19.2258064 L0.31700213,15.1501942 C-0.105884848,14.906895 -0.105623774,14.5133489 0.317524278,14.2712467 L7.40514971,10.2162434 C7.82834998,9.97414119 8.51419026,9.97513 8.93707724,10.2184812 L16.0195334,14.2940414 C16.4423682,14.5373926 16.4421593,14.9309387 16.0189591,15.1730409" id="Fill-4" fill="#F36E44" filter="url(#filter-118)"></path>
                                <g id="Group-3" transform="translate(0.000000, 3.205720)">
                                    <mask id="mask-120" fill="white">
                                        <use xlink:href="#path-119"></use>
                                    </mask>
                                    <g id="Clip-2"></g>
                                    <g id="Group-7" mask="url(#mask-120)">
                                        <g id="Path-6" transform="translate(0.000000, -0.000000)">
                                            <mask id="mask-122" fill="white">
                                                <use xlink:href="#path-121"></use>
                                            </mask>
                                            <use id="Mask" fill="#DC0A2E" xlink:href="#path-121"></use>
                                            <polygon fill="#EE2649" mask="url(#mask-122)" points="8.12478067 5.44640807 8.12478067 16.8052035 19.0994192 11.1258058 18.3603269 -0.633149421"></polygon>
                                        </g>
                                    </g>
                                </g>
                                <g id="Group-6" transform="translate(0.000000, 0.031121)">
                                    <mask id="mask-124" fill="white">
                                        <use xlink:href="#path-123"></use>
                                    </mask>
                                    <g id="Clip-5"></g>
                                    <path d="M16.0189591,5.13772565 L8.93133362,9.192729 C8.50818557,9.43483118 7.82229307,9.43379033 7.39945831,9.19049117 L0.31700213,5.11487895 C-0.105884848,4.87157979 -0.105623774,4.47803364 0.317524278,4.23593146 L7.40514971,0.180928113 C7.82834998,-0.061174067 8.51419026,-0.0601852576 8.93707724,0.183165945 L16.0195334,4.25872612 C16.4423682,4.50207732 16.4421593,4.89562347 16.0189591,5.13772565" id="Fill-4" fill="#FFFFFF" mask="url(#mask-124)"></path>
                                </g>
                            </g>
                        </g>
                    </g>
                </g>
                <g id="3" transform="translate(330.769231, 156.524946)">
                    <g id="Big" transform="translate(0.000000, 36.187419)">
                        <g id="Page-1">
                            <g id="Group-2">
                                <g id="Group-3" transform="translate(0.000000, 8.436106)">
                                    <mask id="mask-126" fill="white">
                                        <use xlink:href="#path-125"></use>
                                    </mask>
                                    <g id="Clip-2"></g>
                                    <g id="Group-7" mask="url(#mask-126)">
                                        <g id="Path-6" transform="translate(0.000000, -0.000000)">
                                            <mask id="mask-128" fill="white">
                                                <use xlink:href="#path-127"></use>
                                            </mask>
                                            <use id="Mask" fill="#DC0A2E" xlink:href="#path-127"></use>
                                            <polygon fill="#EE2649" mask="url(#mask-128)" points="21.1316634 14.2404575 21.1316634 44.1320245 50.0122912 29.186241 48.0673114 -1.75837797"></polygon>
                                        </g>
                                    </g>
                                </g>
                                <g id="Group-6" transform="translate(0.000000, 0.081899)">
                                    <mask id="mask-130" fill="white">
                                        <use xlink:href="#path-129"></use>
                                    </mask>
                                    <g id="Clip-5"></g>
                                    <path d="M23.5035095,24.1913921 C22.389962,24.8285031 20.5849818,24.825764 19.4722587,24.1855031 L0.834216133,13.4602078 C-0.278644336,12.8199468 -0.2779573,11.7842991 0.835590204,11.1471881 L19.4872361,0.476126614 C20.600921,-0.160984387 22.4057638,-0.158382257 23.5186243,0.482015645 L42.1566669,11.207174 C43.2693899,11.8475719 43.2688403,12.8832197 42.1551554,13.5203307 L23.5035095,24.1913921 Z" id="Fill-4" fill="#F36E44" mask="url(#mask-130)"></path>
                                </g>
                            </g>
                        </g>
                        <g id="Page-1" transform="translate(9.009283, 31.394630) scale(-1, 1) translate(-9.009283, -31.394630) translate(4.509283, 23.894630)">
                            <g id="Group-3" transform="translate(0.000000, 0.047986)">
                                <mask id="mask-132" fill="white">
                                    <use xlink:href="#path-131"></use>
                                </mask>
                                <g id="Clip-2"></g>
                                <polygon id="Fill-1" fill="#AAB8CC" mask="url(#mask-132)" points="2.43944464 -3.81159467 -1.73821507 3.40045603 8.48821206 9.28520085 12.6658718 2.07315016"></polygon>
                            </g>
                            <g id="Group-6" transform="translate(0.000000, 0.047986)">
                                <mask id="mask-134" fill="white">
                                    <use xlink:href="#path-133"></use>
                                </mask>
                                <g id="Clip-5"></g>
                                <polygon id="Fill-4" fill="#FFFFFF" mask="url(#mask-134)" points="-1.73820248 3.40043094 -5.91586219 10.6124816 4.31056494 16.4972265 8.48822465 9.28517576"></polygon>
                            </g>
                        </g>
                        <g id="Page-1" transform="translate(28.175551, 23.738103)">
                            <g id="Group-3" transform="translate(0.000000, 0.047986)">
                                <mask id="mask-136" fill="white">
                                    <use xlink:href="#path-135"></use>
                                </mask>
                                <g id="Clip-2"></g>
                                <polygon id="Fill-1" fill="#AAB8CC" mask="url(#mask-136)" points="2.43944464 -3.81159467 -1.73821507 3.40045603 8.48821206 9.28520085 12.6658718 2.07315016"></polygon>
                            </g>
                            <g id="Group-6" transform="translate(0.000000, 0.047986)">
                                <mask id="mask-138" fill="white">
                                    <use xlink:href="#path-137"></use>
                                </mask>
                                <g id="Clip-5"></g>
                                <polygon id="Fill-4" fill="#FFFFFF" mask="url(#mask-138)" points="-1.73820248 3.40043094 -5.91586219 10.6124816 4.31056494 16.4972265 8.48822465 9.28517576"></polygon>
                            </g>
                        </g>
                        <g id="Page-1" transform="translate(14.087776, 7.912701)">
                            <mask id="mask-140" fill="white">
                                <use xlink:href="#path-139"></use>
                            </mask>
                            <g id="Clip-2"></g>
                            <polygon id="Fill-1" fill="#AAB8CC" mask="url(#mask-140)" points="7.94098631 11.4165338 16.391233 11.4165338 16.391233 -0.508446642 7.94098631 -0.508446642"></polygon>
                            <polygon id="Fill-3" fill="#565E68" mask="url(#mask-140)" points="-0.509196708 11.4165338 7.94104996 11.4165338 7.94104996 -0.508446642 -0.509196708 -0.508446642"></polygon>
                        </g>
                    </g>
                    <polygon id="Path-7" fill="url(#linearGradient-20)" opacity="0.200000003" points="13.8060201 49.4150359 13.8060201 11.9139638 22.0051234 16.6602716 30.2006689 11.9139638 30.2006689 49.4150359 22.0051234 54.1311464"></polygon>
                    <g id="Small" transform="translate(13.806020, 0.000000)">
                        <g id="Page-1">
                            <g id="Group-2">
                                <path d="M16.0189591,15.1730409 L8.93133362,19.2280443 C8.50818557,19.4701464 7.82229307,19.4691056 7.39945831,19.2258064 L0.31700213,15.1501942 C-0.105884848,14.906895 -0.105623774,14.5133489 0.317524278,14.2712467 L7.40514971,10.2162434 C7.82834998,9.97414119 8.51419026,9.97513 8.93707724,10.2184812 L16.0195334,14.2940414 C16.4423682,14.5373926 16.4421593,14.9309387 16.0189591,15.1730409" id="Fill-4" fill="#F36E44" filter="url(#filter-141)"></path>
                                <g id="Group-3" transform="translate(0.000000, 3.205720)">
                                    <mask id="mask-143" fill="white">
                                        <use xlink:href="#path-142"></use>
                                    </mask>
                                    <g id="Clip-2"></g>
                                    <g id="Group-7" mask="url(#mask-143)">
                                        <g id="Path-6" transform="translate(0.000000, -0.000000)">
                                            <mask id="mask-145" fill="white">
                                                <use xlink:href="#path-144"></use>
                                            </mask>
                                            <use id="Mask" fill="#DC0A2E" xlink:href="#path-144"></use>
                                            <polygon fill="#EE2649" mask="url(#mask-145)" points="8.12478067 5.44640807 8.12478067 16.8052035 19.0994192 11.1258058 18.3603269 -0.633149421"></polygon>
                                        </g>
                                    </g>
                                </g>
                                <g id="Group-6" transform="translate(0.000000, 0.031121)">
                                    <mask id="mask-147" fill="white">
                                        <use xlink:href="#path-146"></use>
                                    </mask>
                                    <g id="Clip-5"></g>
                                    <path d="M16.0189591,5.13772565 L8.93133362,9.192729 C8.50818557,9.43483118 7.82229307,9.43379033 7.39945831,9.19049117 L0.31700213,5.11487895 C-0.105884848,4.87157979 -0.105623774,4.47803364 0.317524278,4.23593146 L7.40514971,0.180928113 C7.82834998,-0.061174067 8.51419026,-0.0601852576 8.93707724,0.183165945 L16.0195334,4.25872612 C16.4423682,4.50207732 16.4421593,4.89562347 16.0189591,5.13772565" id="Fill-4" fill="#FFFFFF" mask="url(#mask-147)"></path>
                                </g>
                            </g>
                        </g>
                    </g>
                </g>
                <polyline id="Path-9" stroke="url(#linearGradient-148)" stroke-width="4" opacity="0.100000001" stroke-linecap="round" stroke-linejoin="round" points="100.691367 81.4388007 44.472395 115.403772 0.242964831 89.212039"></polyline>
                <path d="M44.6142415,153.288317 L44.6142415,115.584675" id="Path-10" stroke="url(#linearGradient-149)" stroke-width="4" opacity="0.100000001" stroke-linecap="round" stroke-linejoin="round"></path>
                <path d="M44.6142415,131.748187 L44.6142415,124.568143" id="Path-10" stroke="url(#linearGradient-150)" stroke-width="4" stroke-linecap="round" stroke-linejoin="round"></path>
                <polyline id="Path-13" stroke="url(#linearGradient-151)" stroke-width="4" opacity="0.100000001" stroke-linecap="round" stroke-linejoin="round" points="118.0149 221.58848 176.884014 254.737281 120.899581 286.326668 198.354802 330.805073"></polyline>
                <polyline id="Path-14" stroke="url(#linearGradient-152)" stroke-width="4" opacity="0.100000001" stroke-linecap="round" stroke-linejoin="round" points="121.016148 286.196249 99.3164389 298.839856 66.0625588 279.75805"></polyline>
                <polyline id="Path-15" stroke="url(#linearGradient-153)" stroke-width="4" opacity="0.100000001" stroke-linecap="round" stroke-linejoin="round" points="342.857082 221.800235 275.187866 261.391443 242.26262 241.236837"></polyline>
                <path d="M275.256682,261.876657 L275.256682,299.693889" id="Path-16" stroke="url(#linearGradient-154)" stroke-width="4" opacity="0.100000001" stroke-linecap="round" stroke-linejoin="round"></path>
                <path d="M275.256682,261.876657 L275.256682,276.236743" id="Path-16" stroke="url(#linearGradient-155)" stroke-width="4" stroke-linecap="round" stroke-linejoin="round"></path>
                <path d="M359.988209,220.977054 L429.605358,261.10957" id="Path-17" stroke="url(#linearGradient-156)" stroke-width="4" opacity="0.100000001" stroke-linecap="round" stroke-linejoin="round"></path>
                <polyline id="Path-18" stroke="url(#linearGradient-157)" stroke-width="4" stroke-linecap="round" stroke-linejoin="round" points="143.238301 300.097766 121.472584 286.681463 143.238301 273.464293"></polyline>
            </g>
        </g>
    </g>
</svg>